<svg xmlns="http://www.w3.org/2000/svg" xmlns:xlink="http://www.w3.org/1999/xlink" viewBox="0 0 390 240"><defs><style>.a,.e,.k,.l,.m{fill:none;}.b{fill:#fff;}.c{fill:#c6c7c6;}.d{fill:url(#a);}.e,.k,.l,.m,.o{stroke:#c6c7c6;}.e,.k,.l,.o{stroke-width:2px;}.e{stroke-dasharray:4;}.f{fill:url(#b);}.g{opacity:0.6;isolation:isolate;fill:url(#c);}.h{opacity:0.1;}.i{fill:#eee;}.j{fill:#f8f8f8;}.l{stroke-linecap:round;}.n{fill:#e5ecec;}.o{fill:#fdfdfd;}.p{fill:#ffe4d0;}.q{fill:#e97c2c;}.r{fill:#f1f1f1;}.s{fill:#40d79e;}.t{fill:#e5e5e5;}.u{fill:#cbcbcb;}.v{fill:#ffb7b7;}.w{fill:#2f2e41;}</style><linearGradient id="a" x1="-818.80585" y1="395.09365" x2="-818.80585" y2="394.09593" gradientTransform="matrix(303.24997, 0, 0, -164.24921, 248497.84991, 64946.64962)" gradientUnits="userSpaceOnUse"><stop offset="0" stop-color="#f8f8f8" stop-opacity="0.082"/><stop offset="1" stop-color="#7c7c7c" stop-opacity="0.059"/></linearGradient><linearGradient id="b" x1="-818.80585" y1="394.72939" x2="-818.80585" y2="393.73167" gradientTransform="matrix(303.24997, 0, 0, -117.07785, 248497.84991, 46313.96387)" xlink:href="#a"/><linearGradient id="c" x1="-819.37792" y1="392.34929" x2="-819.37792" y2="391.35157" gradientTransform="matrix(385, 0, 0, -40.688, 315655.5, 16159.97692)" gradientUnits="userSpaceOnUse"><stop offset="0" stop-color="#f0eeef" stop-opacity="0"/><stop offset="1" stop-color="#d5d5d5"/></linearGradient></defs><rect class="a" x="-4.54375" y="-5.00003" width="399.0875" height="249.42969"/><path class="b" d="M95.94988,81.97472q-.1215,0-.24234-.0024l-.02125-.00041-.02124.00048c-.066.00153-.13187.00233-.19827.00233H62.06406q-.09915,0-.19784-.00233l-.02129-.00048-.0213.00041c-.08055.00159-.16084.0024-.24177.0024A12.08208,12.08208,0,0,1,52.92542,78.34a12.47784,12.47784,0,0,1,5.13839-20.69752l.39782-.12079.19433-.36753a12.21794,12.21794,0,0,1,10.80179-6.56157,12.08449,12.08449,0,0,1,3.72443.58468l.80219.25943L74.374,50.689a12.20819,12.20819,0,0,1,10.83554-6.62719,12.08535,12.08535,0,0,1,8.61934,3.59757,12.436,12.436,0,0,1,3.62889,8.71406l.00724.81531.80043.15528a12.49411,12.49411,0,0,1,6.34088,20.996A12.08207,12.08207,0,0,1,95.94988,81.97472Z"/><path class="c" d="M95.94988,80.977a11.09155,11.09155,0,0,0,7.94629-3.33783,11.49649,11.49649,0,0,0-5.82075-19.31568l-1.60085-.31056-.01449-1.63063a11.4438,11.4438,0,0,0-3.33841-8.01914,11.09443,11.09443,0,0,0-7.91214-3.30364,11.21366,11.21366,0,0,0-9.95075,6.09056l-.77923,1.49534-1.60438-.51886a11.08849,11.08849,0,0,0-3.41742-.53627A11.22259,11.22259,0,0,0,59.538,57.62048l-.38866.73508-.79562.24158a11.511,11.511,0,0,0-4.71813,19.042A11.09154,11.09154,0,0,0,61.58186,80.977c.07435,0,.14811-.00074.22213-.0022l.04257-.00083.04259.001q.08716.002.17491.00206H95.46678c.05872,0,.11691-.00071.1753-.00206l.0425-.001.0425.00083q.11118.00217.2228.0022m0,1.99544q-.13128,0-.26188-.00259c-.07368.0017-.14713.00259-.22122.00259H62.06406q-.11065,0-.22077-.00259c-.08711.00172-.17392.00259-.26143.00259a13.449,13.449,0,0,1-3.80793-26.28465,13.22178,13.22178,0,0,1,11.68382-7.09294,13.07923,13.07923,0,0,1,4.03144.63309,13.21706,13.21706,0,0,1,24.96625,6.13663,13.4417,13.4417,0,0,1-2.50556,26.60787Z"/><path class="d" d="M189.4038,52.94055c142.20785-4.94071,159.3267,159.77867,156.62588,163.76556H43.7209S47.195,57.88125,189.4038,52.94055Z"/><rect class="b" x="92.23497" y="7.64507" width="98.77416" height="150.65553" rx="19.95437"/><rect class="e" x="93.23269" y="8.64279" width="96.77872" height="148.66009" rx="18.95666"/><path class="f" d="M189.4038,99.973c142.20785-3.522,159.3267,113.89059,156.62588,116.73309H43.7209S47.195,103.49492,189.4038,99.973Z"/><ellipse class="g" cx="195" cy="216.36688" rx="192.06086" ry="20.29759"/><g class="h"><path class="i" d="M123.2003,192.2997a45.70554,45.70554,0,0,1,12.47127,1.749,44.1783,44.1783,0,0,1,10.179,4.30041,28.06822,28.06822,0,0,1,6.81927,5.40078c1.58411,1.80436,2.42143,3.49656,2.42143,4.8937V215.868H123.20775l-12.47519-.37837-.018.33861q-1.80047.00492-4.41362.00494c-8.20857,0-19.684-.03754-19.79892-.03792H68.85263V212.53a7.41909,7.41909,0,0,1,1.85573-4.727,16.33286,16.33286,0,0,1,5.211-3.9908c4.66153-2.41111,10.8703-3.739,17.48258-3.739a22.39854,22.39854,0,0,1,2.29942.12012l.20825.02159.16129-.13351a32.20137,32.20137,0,0,1,11.35757-5.63248A56.76016,56.76016,0,0,1,123.2003,192.2997Z"/><path class="c" d="M154.59239,215.36916v-6.72553c0-1.256-.81592-2.87706-2.29745-4.56456a27.57038,27.57038,0,0,0-6.69706-5.29978,43.67273,43.67273,0,0,0-10.06243-4.25062,45.20683,45.20683,0,0,0-12.33514-1.73011,56.25542,56.25542,0,0,0-15.63114,2.129A31.70631,31.70631,0,0,0,96.389,200.46571l-.32255.267-.41651-.04317a21.89488,21.89488,0,0,0-2.248-.11747c-6.534,0-12.66137,1.30806-17.25338,3.68321a15.84433,15.84433,0,0,0-5.05406,3.86349,6.93558,6.93558,0,0,0-1.743,4.41115v2.76648H86.50366c.115.00038,11.58953.03791,19.79728.03791q2.62384,0,4.42875-.00494l.018-.33837,12.46777.37814h31.37693m.99772.99771h-32.3898l-12.48287-.37859c2.34479.17848,3.911.30156,3.81051.30585-.72054.02845-4.07407.03792-8.227.03792-8.30435,0-19.80057-.03792-19.80057-.03792H68.35378v-3.76419c0-7.15483,11.21446-12.95556,25.0482-12.95556a22.79355,22.79355,0,0,1,2.35085.12277c5.7299-4.74311,15.881-7.89631,27.44748-7.89631,17.888,0,32.3898,10.70084,32.3898,16.84279Z"/></g><rect class="j" x="105.20531" y="26.14178" width="132.69659" height="190.56428" rx="19.95437"/><rect class="k" x="106.20303" y="27.1395" width="130.70116" height="188.56884" rx="18.95666"/><rect class="b" x="116.18022" y="47.09387" width="110.74678" height="147.66237" rx="8.97947"/><path class="b" d="M304.2503,117.435c-.08545,0-.17155-.0007-.25671-.00193l-.01575-.00022-.01573.00027c-.07007.0012-.1407.00188-.21106.00188H256.85846q-.10551,0-.21063-.00187l-.01574-.00027-.01574.00023c-.08513.00122-.17081.00191-.25625.00191a17.46144,17.46144,0,0,1-13.93935-27.97664,17.48735,17.48735,0,0,1,8.91937-6.21126l.39728-.119.19585-.36556a17.48707,17.48707,0,0,1,20.71608-8.40366l.79565.254.39-.73855A17.45637,17.45637,0,0,1,289.28422,64.556a17.46031,17.46031,0,0,1,17.45966,17.29995l.00736.8173.80275.15364A17.46184,17.46184,0,0,1,304.2503,117.435Z"/><path class="c" d="M304.2503,116.43724a16.46425,16.46425,0,0,0,3.11614-32.63046l-1.6055-.30729-.01473-1.63459a16.4664,16.4664,0,0,0-25.07844-13.87915,16.53707,16.53707,0,0,0-5.95051,6.35443l-.78005,1.47711-1.59131-.508a16.48935,16.48935,0,0,0-19.5332,7.92438l-.3917.73111-.79455.238a16.36453,16.36453,0,0,0-4.69329,2.27388,16.53307,16.53307,0,0,0-3.71642,3.58317,16.46319,16.46319,0,0,0,13.14336,26.37739c.08062,0,.16146-.00065.2418-.00181l.03164-.00046.03163.00055q.09644.00167.19329.00172h46.89259c.0647,0,.12964-.00063.19405-.00174l.03133-.00053.03133.00045c.08047.00114.16182.00182.24254.00182m0,1.99544c-.09022,0-.18112-.00074-.271-.002-.07576.0013-.15212.002-.22821.002H256.85846q-.1141,0-.22778-.002c-.0899.0013-.18036.002-.27058.002a18.46058,18.46058,0,0,1-5.3063-36.14138,18.48477,18.48477,0,0,1,21.89895-8.88294,18.46028,18.46028,0,0,1,34.78882,8.43857,18.45968,18.45968,0,0,1-3.49127,36.58575Z"/><line class="l" x1="181.03194" y1="52.83179" x2="162.07528" y2="52.83179"/><circle class="b" cx="173.05019" cy="200.09305" r="3.99087"/><circle class="m" cx="173.05019" cy="200.09305" r="3.49202"/><rect class="n" x="157.08669" y="70.04342" width="48.88822" height="4.98859" rx="1.99544"/><rect class="n" x="157.08669" y="83.01376" width="48.88822" height="4.98859" rx="1.99544"/><rect class="n" x="157.08669" y="96.98182" width="20.95209" height="4.98859" rx="1.99544"/><rect class="n" x="157.08669" y="111.9476" width="20.95209" height="4.98859" rx="1.99544"/><rect class="n" x="146.11178" y="172.80845" width="48.88822" height="4.98859" rx="1.99544"/><path class="o" d="M221.00455,158.29466c.08979-8.34193,5.43757-13.7336,13.74058-13.80544,6.94712-.05986,13.89723-.11773,20.83935.04191,2.48732.05787,2.96922-.875,2.65194-3.06a12.13525,12.13525,0,0,0-12.233-10.32639q-16.93428-.12171-33.86756-.006c-7.41006.04689-12.39466,4.92873-12.58124,12.29688q-.19355,7.62457.006,15.25812c.15265,6.22376,3.6297,10.56983,9.69583,11.92773,1.89567.425,2.201.89794,1.45368,2.617-1.36289,3.13085-2.5352,6.3445-3.79133,9.52323l.75926.59863c3.55587-2.21095,7.05188-4.52665,10.69355-6.585a4.57552,4.57552,0,0,0,2.67588-4.71222C220.86487,167.48166,220.95566,162.88417,221.00455,158.29466Zm47.92442-11.2403q-17.30444-.36616-34.62084,0c-6.30359.12072-10.45709,4.356-10.70253,10.64167-.24544,6.19583-.2594,12.41661.007,18.61045.28335,6.58494,4.74515,10.55286,11.46279,10.65563,3.72248.05587,7.453.15066,11.16746-.03492a12.18411,12.18411,0,0,1,7.63954,2.19c5.50042,3.60575,11.15849,6.96907,17.64366,10.98189-1.17432-2.98118-1.93957-4.91176-2.69384-6.84634s-1.50656-3.89709-2.3167-5.99829c.6984-.11772,1.16733-.23646,1.63925-.27038,7.71835-.55872,11.44782-4.45182,11.52365-12.15621.05388-5.46051.09977-10.923-.016-16.38054-.14667-6.78449-4.11758-11.24728-10.72947-11.387Z"/><path class="p" d="M250.993,168.94627c3.72748,0,6.74957-1.62728,6.74957,2.1012a6.74957,6.74957,0,0,1-13.49914-.001C244.24339,167.319,247.26548,168.94627,250.993,168.94627Z"/><path class="q" d="M256.73285,36.81142a.99772.99772,0,0,1,1.90764,0l.46394,1.51054a.99771.99771,0,0,0,.66049.66049l1.51055.46394a.99772.99772,0,0,1,0,1.90764l-1.51055.46394a.99771.99771,0,0,0-.66049.66049l-.46394,1.51054a.99772.99772,0,0,1-1.90764,0l-.46394-1.51054a.99771.99771,0,0,0-.66049-.66049l-1.51054-.46394a.99772.99772,0,0,1,0-1.90764l1.51054-.46394a.99771.99771,0,0,0,.66049-.66049Z"/><path class="q" d="M239.595,2.76621l1.5305,4.98261,4.98261,1.5305-4.98261,1.5315-1.5305,4.98261-1.53149-4.98261-4.98261-1.5305,4.98261-1.5315Z"/><path class="q" d="M272.16355,9.28037l1.91363,6.22876,6.22876,1.91362-6.22876,1.91363-1.91363,6.22776-1.91362-6.22876-6.22876-1.91263,6.22876-1.91362Z"/><path class="q" d="M97.22357,189.58807l1.5305,4.98261,4.98261,1.5305-4.98261,1.5315-1.5305,4.98261-1.5315-4.98261-4.9826-1.5305,4.9826-1.5315Z"/><path class="r" d="M201.06713,215.11472v-11.367S205.497,211.8063,201.06713,215.11472Z"/><path class="r" d="M201.34147,215.11171l-8.37386-7.68245S201.89921,209.61232,201.34147,215.11171Z"/><path class="r" d="M104.035,215.11472v-11.367S99.60812,211.8063,104.035,215.11472Z"/><path class="r" d="M103.76362,215.11171l8.37285-7.68245S103.2049,209.61128,103.76362,215.11171Z"/><path class="s" d="M148.659,77.32277H141.1591a.50684.50684,0,0,1-.50684-.50684V69.31608a.50684.50684,0,0,1,.50684-.50683H148.659a.50683.50683,0,0,1,.50683.50683v7.50284A.50684.50684,0,0,1,148.659,77.32277Z"/><path class="t" d="M148.633,91.207h-7.49985a.50783.50783,0,0,1-.50684-.50683V83.20034a.50685.50685,0,0,1,.50684-.50684H148.633a.50685.50685,0,0,1,.50684.50684v7.49985A.50685.50685,0,0,1,148.633,91.207Z"/><path class="t" d="M150.64438,148.74846h-7.49982a.50782.50782,0,0,1-.50683-.50684v-7.49985a.50682.50682,0,0,1,.50683-.50683h7.49885a.50783.50783,0,0,1,.50684.50683v7.49985A.50785.50785,0,0,1,150.64438,148.74846Z"/><path class="s" d="M171.361,149.6534h-7.49988a.50683.50683,0,0,1-.50684-.50683v-7.49985a.50683.50683,0,0,1,.50684-.50684H171.361a.50782.50782,0,0,1,.50683.50684v7.49985A.50781.50781,0,0,1,171.361,149.6534Z"/><path class="n" d="M171.36006,166.30433h-7.50189a.50683.50683,0,0,1-.50683-.50684v-7.49985a.50683.50683,0,0,1,.50683-.50684h7.49988a.50784.50784,0,0,1,.50684.50684v7.49985A.50785.50785,0,0,1,171.36006,166.30433Z"/><path class="t" d="M148.60607,105.09128h-7.49985a.50685.50685,0,0,1-.50683-.50684V97.08359a.50685.50685,0,0,1,.50683-.50684h7.49985a.50783.50783,0,0,1,.50684.50684v7.49985A.50782.50782,0,0,1,148.60607,105.09128Z"/><path class="t" d="M150.61649,162.6327h-7.49884a.50783.50783,0,0,1-.50684-.50684V154.625a.50683.50683,0,0,1,.50684-.50684h7.49988a.50683.50683,0,0,1,.50683.50684v7.49985a.50783.50783,0,0,1-.50781.50784Z"/><path class="t" d="M148.57914,118.97454h-7.49985a.50782.50782,0,0,1-.50683-.50683v-7.49985a.50685.50685,0,0,1,.50683-.50684h7.49985a.50685.50685,0,0,1,.50684.50684v7.49985A.50685.50685,0,0,1,148.57914,118.97454Z"/><path class="t" d="M150.59157,176.516h-7.49988a.50784.50784,0,0,1-.50684-.50684v-7.49985a.50683.50683,0,0,1,.50684-.50683h7.49988a.50683.50683,0,0,1,.50684.50683v7.49985A.50783.50783,0,0,1,150.59157,176.516Z"/><circle class="t" cx="148.92236" cy="190.70454" r="1.01368"/><circle class="t" cx="152.57003" cy="190.70454" r="1.01368"/><circle class="t" cx="156.21867" cy="190.70454" r="1.01368"/><path class="u" d="M217.727,215.18157H87.46688a.15764.15764,0,1,1,0-.31428H217.727a.15764.15764,0,1,1,0,.31428Z"/><path class="v" d="M138.591,184.24329a2.05033,2.05033,0,0,0-.27638-3.13181l1.97949-7.013-3.60876,1.1474-1.326,6.48517a2.06129,2.06129,0,0,0,3.23163,2.51324Z"/><path class="q" d="M139.61665,179.94514a.94229.94229,0,0,1-.19956.017l-3.46108-.06985a.91787.91787,0,0,1-.889-1.05158l3.511-23.72475a2.90835,2.90835,0,0,1,2.86844-2.46936h0a2.89339,2.89339,0,0,1,2.80161,3.5868l-2.4893,10.077L140.352,179.145A.91189.91189,0,0,1,139.61665,179.94514Z"/><path class="v" d="M141.06034,217.39747h1.92659l.91691-7.43h-2.8435Z"/><path class="w" d="M140.57247,216.76893h3.79132a2.41742,2.41742,0,0,1,2.41745,2.41745v.07879h-6.21181Z"/><path class="v" d="M149.27853,216.77293l1.91463.21454,1.739-7.28334-2.82554-.31727Z"/><path class="w" d="M148.8605,216.09047l3.77037.423h0a2.41741,2.41741,0,0,1,2.13312,2.67168v.00019l-.00895.07782-6.1729-.69239Z"/><path class="w" d="M139.25645,176.05s-2.641,5.84662-.30829,9.644l1.38983,29.56637h3.19268l3.09291-23.88338,5.49945,7.07081-3.35135,16.50632,3.90209.21947,5.41961-16.72177s-4.16345-18.43886-5.53836-18.88285l-.90394-4.21534Z"/><path class="u" d="M138.08114,181.1823s-2.37957,2.73076,3.90608,3.67361,12.88451-.47091,13.04217-2.35661S138.08114,181.1823,138.08114,181.1823Z"/><path class="v" d="M169.58811,147.31074a1.82487,1.82487,0,0,1-2.20893,1.71708l-2.37555,3.42616-2.43444-.93585,3.4232-4.789a1.83481,1.83481,0,0,1,3.59177.58466Z"/><path class="q" d="M149.495,151.71866l-3.35933-1.51954-4.30415.30731s-5.18815,6.06612-3.14582,11.87985L137.42858,182.656c8.01369,2.195,11.65636-1.92559,17.44111-.15763l-1.78693-22.5275Z"/><path class="q" d="M147.2502,153.19432l2.24486-1.47563s3.11885-.47091,4.365.7383c0,0,4.23136.3542,5.253,1.41078l1.12541.25342,3.73743-4.84,2.28676,1.24316-3.29946,8.95651-9.87744.49189Z"/><circle class="v" cx="145.48091" cy="143.8416" r="5.30188"/><path class="w" d="M140.89569,139.69616c.94681-1.7021,2.12911-2.80459,4.07668-2.76467s3.63171-.03691,4.5077,1.7021a2.86039,2.86039,0,0,0,.33724-1.41078,1.61629,1.61629,0,0,1,.7134,1.62528,1.18025,1.18025,0,0,0,.58265-.96879,1.22826,1.22826,0,0,1,.535,1.6525q-.021.04112-.04506.08054a3.31139,3.31139,0,0,1-1.59633,1.24215c-.61858.29334-.33322,1.84679-.73733,2.40052a6.47615,6.47615,0,0,0-.59861,1.297.0847.0847,0,0,1-.03891.03992,1.14233,1.14233,0,0,0-.63356,1.17033.19012.19012,0,0,1-.006.11174,6.74056,6.74056,0,0,1-2.14706,2.74671,3.55983,3.55983,0,0,1-2.67388.41306,4.64749,4.64749,0,0,1-2.54216-1.757,8.92991,8.92991,0,0,1-1.35488-2.82755,5.288,5.288,0,0,1-.2554-2.7507,2.28078,2.28078,0,0,1,1.87968-1.81585"/></svg>