<svg xmlns="http://www.w3.org/2000/svg" xmlns:xlink="http://www.w3.org/1999/xlink" viewBox="0 0 390 240"><defs><style>.a,.h,.i{fill:none;}.b{fill:url(#a);}.c{opacity:0.6;fill:url(#b);}.c,.n,.r{isolation:isolate;}.d{fill:url(#c);}.e{fill:#fff;}.f{fill:#c6c7c6;}.g{fill:#f1f1f1;}.h,.i{stroke:#c6c7c6;}.h{stroke-width:2px;stroke-dasharray:4;}.j{fill:#e5ecec;}.k{fill:#3ac18e;}.l{fill:#e6e6e6;}.m{fill:#e97c2c;}.n{opacity:0.1;}.o{fill:#ccc;}.p{fill:#9f616a;}.q{fill:#2f2e41;}.r{opacity:0.25;}</style><linearGradient id="a" x1="-827.79614" y1="416.16373" x2="-827.79614" y2="415.16373" gradientTransform="matrix(303.24997, 0, 0, -117.07785, 251215.16253, 48823.42672)" gradientUnits="userSpaceOnUse"><stop offset="0" stop-color="#f8f8f8" stop-opacity="0.082"/><stop offset="1" stop-color="#7c7c7c" stop-opacity="0.059"/></linearGradient><linearGradient id="b" x1="-828.3682" y1="413.77438" x2="-828.3682" y2="412.77438" gradientTransform="matrix(385, 0, 0, -40.688, 319107.76848, 17031.91714)" gradientUnits="userSpaceOnUse"><stop offset="0" stop-color="#f0eeef" stop-opacity="0"/><stop offset="1" stop-color="#d5d5d5"/></linearGradient><linearGradient id="c" x1="-827.79614" y1="416.52923" x2="-827.79614" y2="415.52923" gradientTransform="matrix(303.24997, 0, 0, -164.24921, 251215.16253, 68467.29598)" xlink:href="#a"/></defs><rect class="a" x="-13.99028" y="16.43639" width="400" height="250"/><path class="b" d="M180.40072,99.94939c142.533-3.53,159.691,114.151,156.984,117h-303S37.86672,103.47939,180.40072,99.94939Z"/><ellipse class="c" cx="186.00972" cy="216.60943" rx="192.5" ry="20.344"/><path class="d" d="M180.40072,52.80937c142.533-4.952,159.691,160.144,156.984,164.14h-303S37.86672,57.76137,180.40072,52.80937Z"/><path class="e" d="M136.77,98.94919c-.05164,0-.1037-.00034-.15518-.001l-.01364-.00017-.01364.0002c-.04069.0006-.08181.001-.12264.001H103.758c-.04082,0-.08194-.00036-.12263-.001l-.01364-.0002-.01364.00017c-.05148.00065-.10354.001-.15519.001a11.79364,11.79364,0,0,1-8.37464-3.4523,11.73886,11.73886,0,0,1-1.07973-15.42395,11.93676,11.93676,0,0,1,6.04945-4.19319l.39794-.11867.19681-.36565a11.89372,11.89372,0,0,1,14.051-5.67209l.79512.25258.391-.737a11.87792,11.87792,0,0,1,18.8177-2.87258,11.6795,11.6795,0,0,1,3.50185,8.25671l.00742.81975.80528.15351a11.80471,11.80471,0,0,1,9.59905,11.57105,11.67524,11.67524,0,0,1-3.46656,8.3295A11.79364,11.79364,0,0,1,136.77,98.94919Z"/><path class="f" d="M136.77,97.94919a10.8,10.8,0,0,0,7.66918-3.16105,10.682,10.682,0,0,0,3.172-7.62075,10.80367,10.80367,0,0,0-8.78631-10.58874l-1.61057-.307-.01483-1.63951a10.68583,10.68583,0,0,0-3.20435-7.554,10.87793,10.87793,0,0,0-17.23188,2.62955l-.782,1.47393-1.59023-.50516a10.89372,10.89372,0,0,0-12.86774,5.193l-.39364.7313-.79587.23736A10.92947,10.92947,0,0,0,94.795,80.67767a10.73886,10.73886,0,0,0,.98876,14.11047,10.8,10.8,0,0,0,7.66918,3.16105c.04747,0,.0953-.00032.14262-.00091l.02728-.00034.02728.0004c.0358.00052.072.00085.10792.00085h32.7069c.03593,0,.07213-.00033.10793-.00085l.02728-.0004.02728.00034c.04732.00059.09515.00091.14261.00091m0,2c-.05583,0-.1121-.00037-.16776-.00107-.04556.00067-.09162.00107-.13734.00107H103.758c-.04571,0-.09177-.0004-.13733-.00107-.05566.0007-.11193.00107-.16777.00107A12.77663,12.77663,0,0,1,99.7622,74.92146a12.89373,12.89373,0,0,1,15.23434-6.15119A12.85405,12.85405,0,0,1,139.19942,74.614,12.77817,12.77817,0,0,1,136.77,99.94919Z"/><path class="e" d="M319.50982,160.94929c-.08565,0-.17195-.0007-.2573-.00193l-.01579-.00022-.01576.00027c-.07024.0012-.141.00188-.21154.00188H272.00961q-.10574,0-.2111-.00187l-.01578-.00027-.01578.00023c-.08533.00122-.1712.00191-.25683.00191a17.50136,17.50136,0,0,1-13.97122-28.04061,17.52732,17.52732,0,0,1,8.93976-6.22546l.39819-.11929.19629-.36639a17.52706,17.52706,0,0,1,20.76345-8.42288l.79747.25459.39092-.74025a17.49628,17.49628,0,0,1,15.48454-9.33961,17.50021,17.50021,0,0,1,17.49957,17.3395l.00738.81917.80459.154a17.50176,17.50176,0,0,1-3.31124,34.68723Z"/><path class="f" d="M319.50982,159.94929a16.50189,16.50189,0,0,0,3.12326-32.70506l-1.60917-.308-.01476-1.63833A16.504,16.504,0,0,0,295.87337,111.387a16.57494,16.57494,0,0,0-5.96412,6.369l-.78183,1.48049-1.59495-.50918a16.52707,16.52707,0,0,0-19.57786,7.9425l-.3926.73279-.79637.23857a16.40207,16.40207,0,0,0-4.704,2.27908,16.57078,16.57078,0,0,0-3.72491,3.59136,16.50084,16.50084,0,0,0,13.17341,26.4377c.0808,0,.16182-.00065.24235-.00181l.03171-.00046.0317.00055q.09666.00166.19374.00172h46.9998c.06485,0,.12994-.00062.1945-.00174l.0314-.00053.0314.00044c.08065.00116.16219.00183.2431.00183m0,2c-.09043,0-.18154-.00074-.27166-.002-.07594.0013-.15248.002-.22874.002h-46.9998q-.11437,0-.2283-.002c-.09011.0013-.18078.002-.2712.002a18.50278,18.50278,0,0,1-5.31844-36.224,18.527,18.527,0,0,1,21.949-8.90325,18.50249,18.50249,0,0,1,34.86836,8.45786,18.50189,18.50189,0,0,1-3.49925,36.6694Z"/><path class="g" d="M132.39171,222.72344c-.013-.059-1.3-5.946,1.332-10.835s8.264-7.045,8.321-7.067l.257-.1.061.268c.013.059,1.3,5.946-1.332,10.835s-8.264,7.045-8.321,7.067l-.257.1Zm9.557-17.344c-1.127.485-5.576,2.607-7.8,6.737s-1.555,9.014-1.341,10.221c1.127-.484,5.574-2.6,7.8-6.737s1.556-9.01306,1.342-10.221Z"/><path class="g" d="M139.01571,214.11235c-4.738,2.85-6.563,8.512-6.563,8.512s5.857,1.04,10.595-1.81,6.563-8.512,6.563-8.512S143.75371,211.26238,139.01571,214.11235Z"/><rect class="e" x="135.91771" y="95.62438" width="136" height="32.594" rx="9"/><rect class="h" x="136.91771" y="96.62438" width="134" height="30.594" rx="8"/><circle class="e" cx="193.00972" cy="49.9204" r="4"/><circle class="i" cx="193.00972" cy="49.9204" r="3.5"/><rect class="j" x="181.00972" y="106.9204" width="34" height="5" rx="2"/><rect class="j" x="181.00972" y="144.9204" width="34" height="5" rx="2"/><rect class="j" x="181.00972" y="115.9204" width="49" height="5" rx="2"/><rect class="j" x="181.00972" y="153.9204" width="49" height="5" rx="2"/><circle class="k" cx="237.77571" cy="162.79439" r="1.858"/><path class="f" d="M237.7747,98.0914h-.938V76.4474c0-6.918-6.63-12.527-14.809-12.527H167.82475c-8.179,0-14.809,5.608-14.809,12.527v118.74c0,6.918,6.63,12.527,14.809,12.527h54.212c8.179,0,14.809-5.608,14.809-12.527v-81.689h.934Z"/><path class="e" d="M222.85667,66.3934h-7.334a3.767,3.767,0,0,1-.523,4.162,5.86009,5.86009,0,0,1-4.52,1.968h-32.189a5.86,5.86,0,0,1-4.519-1.967,3.76709,3.76709,0,0,1-.523-4.163h-6.85c-6.331,0-11.463,4.193-11.463,9.365v118.7c0,5.172,5.132,9.365,11.463,9.365h56.458c6.33,0,11.463-4.193,11.463-9.365h0V75.7614c0-5.172-5.132-9.365-11.463-9.365Z"/><path class="l" d="M204.34373,196.05642a17.754,17.754,0,1,1,13.129-5.811l3.708,4.156-1.85407.78393c-2.862,1.214-5.663.033-7.235-.91A17.777,17.777,0,0,1,204.34373,196.05642Zm0-32.59a14.855,14.855,0,1,0,7.141,27.883l.792-.435.736.524a7.78843,7.78843,0,0,0,2.81,1.286l-2.333-2.615,1.023-.961a14.714,14.714,0,0,0,4.685-10.826A14.872,14.872,0,0,0,204.34373,163.46639Z"/><path class="e" d="M220.63872,178.32143a16.28894,16.28894,0,1,0-8.46,14.291c1.126.8,3.874,2.4,6.589,1.248l-3.268-3.663A16.24909,16.24909,0,0,0,220.63872,178.32143Z"/><rect class="k" x="195.95171" y="174.9894" width="11.644" height="1.081"/><rect class="l" x="195.95171" y="178.7294" width="20.294" height="1.081"/><rect class="l" x="195.95171" y="182.4704" width="20.274" height="1.081"/><path class="l" d="M204.34373,117.2224a17.754,17.754,0,1,1,13.129-5.811l3.708,4.156-1.85407.784c-2.862,1.214-5.663.033-7.235-.91A17.777,17.777,0,0,1,204.34373,117.2224Zm0-32.59a14.855,14.855,0,1,0,7.141,27.883l.792-.435.737.524a7.78786,7.78786,0,0,0,2.81,1.286l-2.333-2.615,1.023-.961a14.71393,14.71393,0,0,0,4.685-10.826,14.872,14.872,0,0,0-14.855-14.856Z"/><path class="e" d="M220.63975,99.48839a16.289,16.289,0,1,0-8.46,14.29c1.126.8,3.874,2.4,6.589,1.249l-3.268-3.663A16.249,16.249,0,0,0,220.63975,99.48839Z"/><rect class="k" x="195.95171" y="96.1554" width="11.644" height="1.081"/><rect class="l" x="195.95171" y="99.8964" width="20.294" height="1.081"/><rect class="l" x="195.95171" y="103.6364" width="20.274" height="1.081"/><circle class="l" cx="226.91472" cy="116.1694" r="2.569"/><circle class="l" cx="226.91472" cy="195.00341" r="2.569"/><path class="m" d="M170.19273,157.9684c-1.88,1.127-5.229,2.54-8.651,1.088l-2.212-.938,4.433-4.969a21.172,21.172,0,1,1,6.43,4.82Z"/><path class="n" d="M197.31767,138.79439a19.484,19.484,0,0,0-17.76-19.407c.566-.05,1.14-.077,1.721-.077a19.48351,19.48351,0,1,1,0,38.967h0c-.58,0-1.153-.027-1.719-.077A19.484,19.484,0,0,0,197.31767,138.79439Z"/><rect class="e" x="168.27171" y="134.9094" width="13.922" height="1.293"/><rect class="e" x="168.27171" y="139.3814" width="24.265" height="1.293"/><rect class="e" x="168.27171" y="143.8534" width="24.241" height="1.293"/><path class="o" d="M92.8047,217.98943h75.277a.2.2,0,1,0,0-.4H92.8047a.2.2,0,0,0,0,.4Z"/><path class="l" d="M128.91969,132.97741l.3-1.488s4.376-1.488,4.866,1.488Z"/><path class="p" d="M137.31872,214.88842h2.869l1.365-11.066h-4.234Z"/><path class="q" d="M136.58668,213.95238h5.65a3.6,3.6,0,0,1,3.6,3.6v.117h-9.251Z"/><path class="p" d="M123.48871,214.88842h2.869l1.365-11.066h-4.234Z"/><path class="q" d="M122.7567,213.95238h5.65a3.6,3.6,0,0,1,3.6,3.6v.117h-9.251Z"/><path class="m" d="M124.75471,139.2264l-3.273-.3-2.083,9.818.3,8.926,3.273,11.9,4.463-2.678-2.38-12.2Z"/><path class="q" d="M122.68271,168.5324l.733,6.248.688,14.579-1.581,21.725,5.653-.3,2.771-22.612,1.692-10.414,2.38,11.9,1.488,22.314,5.8-.465v-21.929l.149-15.988-2.083-6.248Z"/><path class="m" d="M134.86973,133.27239s-2.083-2.975-5.951-.893l-1.785,2.38-5.653,4.165,1.19,13.984-1.488,17.554,21.124-.3-3.57-17.554v-18.736Z"/><path class="r" d="M123.41771,143.86638l-1.706,20.4,2.152-11.055Z"/><path class="p" d="M158.9247,160.96837a2.194,2.194,0,0,1-2.875-1.748l-4.868-1.2.01-3.137,6.851,1.8a2.206,2.206,0,0,1,.883,4.292Z"/><rect class="l" x="152.07118" y="156.32783" width="4.75955" height="2.0828" transform="translate(-27.14065 282.44786) rotate(-80.09492)"/><circle class="p" cx="131.55946" cy="123.86425" r="5.975"/><path class="q" d="M132.00471,129.13442a6.06,6.06,0,0,1-3.965-11.391,7.08586,7.08586,0,0,1,3.346-.6c1.787.094,3.524.754,5.312.706l.259.417.977-.237.209.776.257-.009a1.482,1.482,0,0,1-1.254,2.073,5.789,5.789,0,0,1-1.126-.245,1.134,1.134,0,0,0-1.08.224c-.338.37-.191.947-.12,1.442s-.105,1.163-.606,1.179c-.256.008-.5-.175-.75-.127a.609.609,0,0,0-.4.7,2.8,2.8,0,0,0,.35.817,3.291,3.291,0,0,1-1.306,4.2"/><path class="m" d="M137.3177,135.0204l1.42-1.15a2.593,2.593,0,0,1,2.814,2.839l4.586,14.345,8.8,3.117-1.185,6.125-12.447-4.742-6.323-10.479Z"/></svg>