<svg xmlns="http://www.w3.org/2000/svg" xmlns:xlink="http://www.w3.org/1999/xlink" viewBox="0 0 390 240"><defs><style>.a,.e,.k,.l,.m{fill:none;}.b{fill:#fff;}.c{fill:#c6c7c6;}.d{fill:url(#a);}.e,.k,.l,.m{stroke:#c6c7c6;}.e{stroke-width:2px;stroke-dasharray:4;}.f{fill:url(#b);}.g{opacity:0.6;isolation:isolate;fill:url(#c);}.h{opacity:0.1;}.i{fill:#eee;}.j{fill:#f8f8f8;}.k,.l{stroke-width:2px;}.l{stroke-linecap:round;}.n{fill:#e97c2c;}.o{fill:#f2f2f2;}.p{fill:#e6e6e6;}.q{fill:#01cc83;}.r{fill:#3f3d56;}.s{fill:#ffb7b7;}.t{fill:#a0616a;}.u{fill:#2f2e41;}</style><linearGradient id="a" x1="-818.80585" y1="394.89284" x2="-818.80585" y2="393.89284" gradientTransform="matrix(303.24997, 0, 0, -164.24921, 248497.84991, 64913.5998)" gradientUnits="userSpaceOnUse"><stop offset="0" stop-color="#f8f8f8" stop-opacity="0.082"/><stop offset="1" stop-color="#7c7c7c" stop-opacity="0.059"/></linearGradient><linearGradient id="b" x1="-818.80585" y1="394.52734" x2="-818.80585" y2="393.52734" gradientTransform="matrix(303.24997, 0, 0, -117.07785, 248497.84991, 46290.34833)" xlink:href="#a"/><linearGradient id="c" x1="-819.37792" y1="392.13799" x2="-819.37792" y2="391.13799" gradientTransform="matrix(385, 0, 0, -40.688, 315655.5, 16151.63934)" gradientUnits="userSpaceOnUse"><stop offset="0" stop-color="#f0eeef" stop-opacity="0"/><stop offset="1" stop-color="#d5d5d5"/></linearGradient></defs><rect class="a" x="-5" y="-5.2" width="400" height="250"/><path class="b" d="M288.18009,126.43491c-.08565,0-.17194-.0007-.2573-.00193l-.01578-.00022-.01577.00027c-.07023.0012-.141.00188-.21154.00188H240.67989q-.10575,0-.21111-.00187l-.01577-.00027-.01578.00023c-.08533.00122-.1712.00191-.25683.00191A17.50136,17.50136,0,0,1,226.20917,98.3943a17.5274,17.5274,0,0,1,8.93977-6.22546l.39818-.11929.1963-.36639a17.52706,17.52706,0,0,1,20.76345-8.42288l.79747.25459.39091-.74025A17.49628,17.49628,0,0,1,273.17979,73.435a17.50022,17.50022,0,0,1,17.49958,17.3395l.00737.81917.80459.154a17.50176,17.50176,0,0,1-3.31124,34.68723Z"/><path class="c" d="M288.18009,125.43491a16.50189,16.50189,0,0,0,3.12327-32.70506l-1.60918-.308-.01476-1.63833a16.504,16.504,0,0,0-25.13578-13.91088,16.57494,16.57494,0,0,0-5.96412,6.369l-.78182,1.48048-1.595-.50917a16.52707,16.52707,0,0,0-19.57786,7.9425l-.3926.73279-.79636.23857a16.40213,16.40213,0,0,0-4.704,2.27908,16.571,16.571,0,0,0-3.72491,3.59136,16.50084,16.50084,0,0,0,13.17342,26.4377c.08079,0,.16182-.00065.24234-.00181l.03172-.00046.0317.00055q.09664.00167.19373.00172H287.6797c.06484,0,.12993-.00063.19449-.00174l.0314-.00053.03141.00044c.08065.00116.16218.00183.24309.00183m0,2c-.09042,0-.18153-.00074-.27166-.002-.07593.00131-.15247.002-.22873.002H240.67989q-.11437,0-.2283-.002c-.09011.00131-.18077.002-.27119.002a18.50278,18.50278,0,0,1-5.31844-36.224,18.527,18.527,0,0,1,21.949-8.90325,18.50249,18.50249,0,0,1,34.86836,8.45786,18.50189,18.50189,0,0,1-3.49925,36.6694Z"/><path class="b" d="M95.7234,81.97361q-.12177,0-.24289-.0024l-.0213-.00042-.02129.00049c-.06619.00153-.13217.00233-.19872.00233H61.7601q-.09938,0-.19829-.00233l-.02134-.00049-.02134.00042c-.08074.00159-.16121.0024-.24233.0024a12.1097,12.1097,0,0,1-8.67623-3.643,12.50636,12.50636,0,0,1,5.15014-20.74484l.39873-.12107.19477-.36837A12.2459,12.2459,0,0,1,69.1707,50.51971a12.11238,12.11238,0,0,1,3.733.586l.804.26.39051-.74939A12.23611,12.23611,0,0,1,84.9585,43.974a12.113,12.113,0,0,1,8.639,3.6058,12.46447,12.46447,0,0,1,3.63718,8.734l.00726.81718.80226.15563a12.52268,12.52268,0,0,1,6.35538,21.044A12.1097,12.1097,0,0,1,95.7234,81.97361Z"/><path class="c" d="M95.7234,80.97361a11.11691,11.11691,0,0,0,7.96446-3.34546A11.52278,11.52278,0,0,0,97.85381,58.2683L96.24929,57.957l-.01452-1.63436a11.47,11.47,0,0,0-3.346-8.03747A11.11981,11.11981,0,0,0,84.9585,44.974,11.23931,11.23931,0,0,0,74.985,51.07849l-.781,1.49876-1.60805-.52a11.11389,11.11389,0,0,0-3.42523-.53749,11.24825,11.24825,0,0,0-9.94245,6.044l-.38955.73676-.79744.24213a11.5373,11.5373,0,0,0-4.72892,19.08557,11.11691,11.11691,0,0,0,7.96446,3.34546c.07452,0,.14845-.00074.22264-.0022l.04267-.00084.04268.001q.08738.002.17531.00206H95.2392c.05885,0,.11718-.00071.1757-.00206l.0426-.001.04259.00083q.11144.00219.22331.00221m0,2q-.13158,0-.26247-.00259c-.07385.0017-.14747.00259-.22173.00259H61.7601q-.1109,0-.22127-.00259c-.08731.00172-.17432.00259-.262.00259a13.47977,13.47977,0,0,1-3.81663-26.34475A13.252,13.252,0,0,1,69.1707,49.51971a13.10918,13.10918,0,0,1,4.04066.63453A13.24728,13.24728,0,0,1,98.23469,56.3049,13.47244,13.47244,0,0,1,95.7234,82.97361Z"/><path class="d" d="M189.391,52.87305c142.533-4.952,159.691,160.144,156.984,164.14h-303S46.857,57.82505,189.391,52.87305Z"/><rect class="b" x="94.99846" y="52.73198" width="99" height="151" rx="20" transform="translate(11.30167 268.16718) rotate(-88)"/><rect class="e" x="95.99846" y="53.73198" width="97" height="149" rx="19" transform="translate(11.30167 268.16718) rotate(-88)"/><path class="f" d="M189.391,100.013c142.533-3.53,159.691,114.151,156.984,117h-303S46.857,103.543,189.391,100.013Z"/><ellipse class="g" cx="195" cy="216.67305" rx="192.5" ry="20.344"/><g class="h"><path class="i" d="M123.03614,192.55085a45.81025,45.81025,0,0,1,12.49978,1.753,44.27956,44.27956,0,0,1,10.20224,4.31025,28.13252,28.13252,0,0,1,6.83487,5.41313c1.58773,1.80848,2.427,3.50456,2.427,4.90489v7.2409H123.0436l-12.50372-.37923-.01805.33939q-1.80457.00494-4.4237.00494c-8.22735,0-19.729-.03762-19.8442-.038H68.5642v-3.2728a7.43606,7.43606,0,0,1,1.86-4.73777,16.37013,16.37013,0,0,1,5.223-3.99992c4.67218-2.41662,10.89515-3.74751,17.52255-3.74751a22.44764,22.44764,0,0,1,2.30468.1204l.20872.02163.16166-.13381a32.275,32.275,0,0,1,11.38354-5.64536A56.89015,56.89015,0,0,1,123.03614,192.55085Z"/><path class="c" d="M154.5,215.67305v-6.74091c0-1.25887-.81779-2.88363-2.3027-4.575a27.63367,27.63367,0,0,0-6.71238-5.3119,43.77259,43.77259,0,0,0-10.08544-4.26034,45.30989,45.30989,0,0,0-12.36334-1.73406,56.38427,56.38427,0,0,0-15.66688,2.13387,31.77887,31.77887,0,0,0-11.2057,5.55081l-.32329.26763-.41746-.04327a21.94443,21.94443,0,0,0-2.25313-.11773c-6.54894,0-12.69033,1.311-17.29283,3.69162a15.88062,15.88062,0,0,0-5.06562,3.87233,6.95146,6.95146,0,0,0-1.747,4.42124v2.77279H86.25558c.11522.00039,11.616.038,19.84255.038q2.62985,0,4.43888-.00494l.018-.33915,12.49628.379H154.5m1,1H123.03614l-12.51141-.37946c2.35015.17888,3.91994.30225,3.81922.30655-.72218.02851-4.08339.038-8.24582.038-8.32333,0-19.84584-.038-19.84584-.038H68.06421v-3.77279c0-7.17119,11.2401-12.98519,25.10547-12.98519a22.84377,22.84377,0,0,1,2.35622.12305c5.743-4.754,15.91731-7.91436,27.51024-7.91436,17.92888,0,32.46386,10.72531,32.46386,16.88129Z"/></g><rect class="j" x="105" y="26.01301" width="133" height="191" rx="20"/><rect class="k" x="106" y="27.01301" width="131" height="189" rx="19"/><rect class="b" x="116" y="47.01301" width="111" height="148" rx="9"/><line class="l" x1="181" y1="52.76405" x2="162" y2="52.76405"/><circle class="b" cx="173" cy="200.36201" r="4"/><circle class="m" cx="173" cy="200.36201" r="3.5"/><path class="n" d="M256.874,36.707a1,1,0,0,1,1.912,0l.465,1.514a1,1,0,0,0,.662.662l1.514.465a1,1,0,0,1,0,1.912l-1.514.465a1,1,0,0,0-.662.662l-.465,1.514a1,1,0,0,1-1.912,0l-.465-1.514a1,1,0,0,0-.662-.662l-1.514-.465a1,1,0,0,1,0-1.912l1.514-.465a1,1,0,0,0,.662-.662Z"/><path class="n" d="M239.697,2.584l1.534,4.994,4.994,1.534-4.994,1.535-1.534,4.994-1.535-4.994-4.994-1.534,4.994-1.535Z"/><path class="n" d="M272.341,9.11305l1.918,6.243,6.243,1.918-6.243,1.918-1.918,6.242-1.918-6.243-6.243-1.917,6.243-1.918Z"/><path class="n" d="M97,189.833l1.534,4.994,4.994,1.534-4.994,1.535L97,202.89l-1.535-4.994-4.994-1.534,4.994-1.535Z"/><rect class="o" x="143.52" y="74.82701" width="82.37" height="43.25"/><rect class="p" x="143.469" y="74.76001" width="82.37" height="5.014"/><rect class="b" x="145.381" y="81.80701" width="78.965" height="33.99"/><circle class="b" cx="151.275" cy="77.25401" r="0.829"/><circle class="b" cx="154.423" cy="77.25401" r="0.829"/><circle class="b" cx="148.118" cy="77.25401" r="0.829"/><rect class="o" x="163.09" y="91.76801" width="45.408" height="2.024"/><rect class="o" x="163.09" y="96.82701" width="16.19" height="2.024"/><rect class="o" x="163.09" y="101.88601" width="32.253" height="2.024"/><circle class="b" cx="190.126" cy="120.48201" r="0.926"/><rect class="o" x="123.354" y="122.94901" width="77.515" height="40.701"/><rect class="p" x="123.305" y="122.88601" width="77.515" height="4.718"/><rect class="b" x="124.989" y="129.24501" width="74.43" height="32.332"/><circle class="b" cx="130.653" cy="125.23401" r="0.781"/><circle class="b" cx="133.616" cy="125.23401" r="0.781"/><circle class="b" cx="127.682" cy="125.23401" r="0.781"/><rect class="o" x="138.575" y="138.84201" width="50.687" height="2.259"/><rect class="o" x="138.575" y="144.48901" width="18.072" height="2.259"/><rect class="o" x="138.575" y="150.13701" width="36.003" height="2.259"/><rect class="p" x="179.94699" y="140.50201" width="91.946" height="48.278"/><rect class="q" x="179.88999" y="140.42701" width="91.946" height="5.597"/><rect class="b" x="182.011" y="147.74301" width="87.67" height="38.343"/><circle class="b" cx="188.60299" cy="143.21201" r="0.926"/><circle class="b" cx="185.07999" cy="143.21201" r="0.926"/><rect class="p" x="192.28299" y="157.61601" width="67.22" height="2.996"/><rect class="p" x="192.28299" y="165.10601" width="23.967" height="2.996"/><rect class="p" x="192.28299" y="172.59501" width="47.747" height="2.996"/><path class="b" d="M228.047,141.156l-4.322,2.394,4.609-1.625Z"/><ellipse class="r" cx="229.24437" cy="141.20165" rx="1.206" ry="2.429" transform="translate(-32.40705 77.72391) rotate(-17.994)"/><path class="r" d="M229.52,139.799l2.866-1.035.609,1.687-2.774,1.874Z"/><path class="n" d="M270.556,169.766a.958.958,0,0,1-.57.025l-1.754-.466a.95906.95906,0,0,1-.707-.841l-.594-6.828L260.769,150.8a3.08022,3.08022,0,0,1,5.786-2.115h0l4.235,6.633a9.853,9.853,0,0,1,1.437,6.786l-1.05,6.907a.956.956,0,0,1-.621.756Z"/><path class="s" d="M229.654,140.872a2.137,2.137,0,0,0,3,1.327l5.4,5.342.773-3.869-5.243-4.479a2.148,2.148,0,0,0-3.922,1.679Z"/><path class="t" d="M270.778,174.574a2.137,2.137,0,0,0-.5-3.238l1.578-7.427-3.674,1.44-.935,6.832a2.148,2.148,0,0,0,3.533,2.392Z"/><path class="t" d="M253.001,213.283h-2.605l-1.239-10.048h3.845Z"/><path class="u" d="M253.665,215.808h-8.4v-.106a3.269,3.269,0,0,1,3.269-3.269h5.13Z"/><path class="t" d="M265.75,213.283h-2.6l-1.239-10.048h3.845Z"/><path class="u" d="M266.414,215.808h-8.4v-.106a3.269,3.269,0,0,1,3.269-3.269h5.13Z"/><path class="u" d="M253.273,208.036l-3.688-.148a.959.959,0,0,1-.918-.985l1.039-34.078.068-.024c6.463-2.338,11.81-2.161,16.346.54l.051.03.622,33.19a.956.956,0,0,1-.93781.97382l-.01819.00018h-3.109a.958.958,0,0,1-.938-.772l-4.236-21.548a.319.319,0,0,0-.629.023l-2.664,21.956a.962.962,0,0,1-.95.841Z"/><circle class="s" cx="256.85977" cy="137.72312" r="5.219"/><path class="n" d="M233.672,142.914a.95793.95793,0,0,1,.388-.419l1.574-.9a.959.959,0,0,1,1.094.1l5.229,4.43,12.019,3.37a3.08,3.08,0,1,1-2.50025,5.62976q-.061-.02706-.12072-.05677l-7.678-1.728a9.853,9.853,0,0,1-5.8-3.807l-4.117-5.644a.93737.93737,0,0,1-.088-.975Z"/><path class="n" d="M251.151,146.99a8.886,8.886,0,0,1,7.126-2.881l.261.018h0a8.868,8.868,0,0,1,6.408,3.537,9,9,0,0,1,1.6,7.255,28.12514,28.12514,0,0,0,.743,14.423l1.4,4.347a.956.956,0,0,1-.859,1.248l-7.158.385-1.832-3.164v3.262l-8.7.468h-.052a.956.956,0,0,1-.95612-.95591q0-.03858.00311-.07708l.983-12.193-1.233-8.281a8.944,8.944,0,0,1,2.264-7.393Z"/><path class="u" d="M260.484,142.704c-.483.278-2.393.462-2.529-.078v-.012a4.07068,4.07068,0,0,1,.011-1.216,1.524,1.524,0,0,0-.289-1.152c-.516-.557-1.434-.262-2.18-.4a1.841,1.841,0,0,1-1.432-1.966c.011-.084.027-.169.046-.254a1.418,1.418,0,0,0-1.472-1.717c-.754.043-1.568.272-2.192-.287a2.3939,2.3939,0,0,1-.388-2.168c.356-1.028,2.638-1.566,3.634-1.862a8.631,8.631,0,0,1,7.316,1.2,3.87373,3.87373,0,0,1,1.485,1.722,1.88607,1.88607,0,0,1-.466,2.108,3.9,3.9,0,0,1,.9,3.784C262.631,141.367,261.206,142.29,260.484,142.704Z"/></svg>