<svg xmlns="http://www.w3.org/2000/svg" xmlns:xlink="http://www.w3.org/1999/xlink" viewBox="0 0 390 240"><defs><style>.a,.i,.l,.v{fill:none;}.b{fill:url(#a);}.c{opacity:0.6;isolation:isolate;fill:url(#b);}.d{fill:url(#c);}.e{fill:#ececec;}.f{fill:#c6c7c6;}.g{fill:#f1f1f1;}.h{fill:#fff;}.i{stroke:#d8d8d8;}.i,.l{stroke-width:2px;}.j{opacity:0.89;}.k{fill:#fff9ef;}.l{stroke:#c6c7c6;stroke-dasharray:4;}.m{fill:#01cc83;}.n{fill:#d8d8d8;}.o{fill:#e6e5e5;}.p{fill:#e6e6e6;}.q{fill:#f2f2f2;}.r{fill:#ffb7b7;}.s{fill:#2f2e41;}.t{fill:#fe8f29;}.u{fill:#cbcbcb;}.v{stroke:#8e8e8e;}</style><linearGradient id="a" x1="-818.80585" y1="408.44735" x2="-818.80585" y2="407.44735" gradientTransform="matrix(303.24997, 0, 0, -117.07785, 248497.84991, 47919.79135)" gradientUnits="userSpaceOnUse"><stop offset="0" stop-color="#f8f8f8" stop-opacity="0.082"/><stop offset="1" stop-color="#7c7c7c" stop-opacity="0.059"/></linearGradient><linearGradient id="b" x1="-819.37792" y1="406.058" x2="-819.37792" y2="405.058" gradientTransform="matrix(385, 0, 0, -40.688, 315655.5, 16717.73476)" gradientUnits="userSpaceOnUse"><stop offset="0" stop-color="#f0eeef" stop-opacity="0"/><stop offset="1" stop-color="#d5d5d5"/></linearGradient><linearGradient id="c" x1="-818.80585" y1="408.81285" x2="-818.80585" y2="407.81285" gradientTransform="matrix(303.24997, 0, 0, -164.24921, 248497.84991, 67199.66859)" xlink:href="#a"/></defs><rect class="a" x="-5" y="8.72001" width="400" height="250"/><path class="b" d="M189.391,99.731c142.533-3.53,159.691,114.151,156.984,117h-303S46.857,103.261,189.391,99.731Z"/><ellipse class="c" cx="195" cy="216.39104" rx="192.5" ry="20.344"/><path class="d" d="M189.391,52.591c142.533-4.952,159.691,160.144,156.984,164.14h-303S46.857,57.543,189.391,52.591Z"/><path class="e" d="M145.76029,98.7308c-.05164,0-.1037-.00034-.15518-.001l-.01364-.00017-.01364.0002c-.04069.0006-.08181.001-.12264.001h-32.7069c-.04082,0-.08194-.00036-.12263-.001l-.01364-.0002-.01364.00017c-.05148.00065-.10354.001-.15519.001a11.79364,11.79364,0,0,1-8.37464-3.4523,11.73886,11.73886,0,0,1-1.07973-15.42395,11.93676,11.93676,0,0,1,6.04945-4.19319l.39794-.11867.19681-.36565a11.89372,11.89372,0,0,1,14.051-5.67209l.79512.25258.391-.737a11.87792,11.87792,0,0,1,18.8177-2.87258,11.6795,11.6795,0,0,1,3.50185,8.25671l.00742.81975.80528.15351A11.80471,11.80471,0,0,1,157.60149,86.949a11.67524,11.67524,0,0,1-3.46656,8.3295A11.79364,11.79364,0,0,1,145.76029,98.7308Z"/><path class="f" d="M145.76029,97.7308a10.8,10.8,0,0,0,7.66918-3.16105,10.682,10.682,0,0,0,3.172-7.62075,10.80367,10.80367,0,0,0-8.78631-10.58874l-1.61057-.307-.01483-1.63951a10.68583,10.68583,0,0,0-3.20435-7.554,10.87793,10.87793,0,0,0-17.23188,2.62955l-.782,1.47393-1.59023-.50516a10.89372,10.89372,0,0,0-12.86774,5.193l-.39364.7313-.79587.23736a10.92947,10.92947,0,0,0-5.53881,3.83962,10.73886,10.73886,0,0,0,.98876,14.11047,10.8,10.8,0,0,0,7.66918,3.16105c.04747,0,.0953-.00032.14262-.00091l.02728-.00034.02728.0004c.0358.00052.072.00085.10792.00085h32.7069c.03593,0,.07213-.00033.10793-.00085l.02728-.0004.02728.00034c.04732.00059.09515.00091.14261.00091m0,2c-.05583,0-.1121-.00037-.16776-.00107-.04556.00067-.09162.00107-.13734.00107h-32.7069c-.04571,0-.09177-.0004-.13733-.00107-.05566.0007-.11193.00107-.16777.00107a12.77663,12.77663,0,0,1-3.69071-25.02773,12.89373,12.89373,0,0,1,15.23434-6.15119,12.85405,12.85405,0,0,1,24.20288,5.84376,12.77817,12.77817,0,0,1-2.42941,25.33516Z"/><path class="e" d="M328.5001,160.7309c-.08565,0-.17194-.0007-.2573-.00193l-.01579-.00022-.01576.00027c-.07024.0012-.141.00188-.21154.00188H280.9999q-.10575,0-.21111-.00187l-.01578-.00027-.01577.00022c-.08533.00123-.1712.00192-.25684.00192a17.50136,17.50136,0,0,1-13.97122-28.04061,17.52717,17.52717,0,0,1,8.93976-6.22546l.39819-.11929.1963-.36639a17.52705,17.52705,0,0,1,20.76344-8.42288l.79747.25458.39092-.74024A17.49622,17.49622,0,0,1,313.4998,107.731a17.50021,17.50021,0,0,1,17.49957,17.3395l.00738.81917.80459.154a17.50176,17.50176,0,0,1-3.31124,34.68723Z"/><path class="f" d="M328.5001,159.7309a16.50189,16.50189,0,0,0,3.12327-32.70506l-1.60918-.308-.01476-1.63833a16.50406,16.50406,0,0,0-25.13578-13.91089,16.575,16.575,0,0,0-5.96412,6.369l-.78183,1.48048-1.595-.50917a16.52707,16.52707,0,0,0-19.57786,7.9425l-.3926.73279-.79636.23857a16.402,16.402,0,0,0-4.704,2.27908,16.57077,16.57077,0,0,0-3.72491,3.59136,16.50084,16.50084,0,0,0,13.17341,26.4377c.0808,0,.16183-.00065.24235-.00181l.03171-.00046.0317.00054q.09666.00166.19374.00173h46.9998c.06485,0,.12994-.00063.1945-.00174l.0314-.00053.0314.00044c.08065.00115.16219.00183.2431.00183m0,2c-.09042,0-.18153-.00074-.27166-.002-.07594.0013-.15247.002-.22874.002H280.9999q-.11437,0-.2283-.002c-.09011.0013-.18077.002-.2712.002a18.50278,18.50278,0,0,1-5.31844-36.224,18.527,18.527,0,0,1,21.949-8.90325,18.50249,18.50249,0,0,1,34.86836,8.45786,18.50189,18.50189,0,0,1-3.49925,36.6694Z"/><path class="g" d="M141.382,222.50505c-.013-.059-1.3-5.946,1.332-10.835s8.264-7.045,8.321-7.067l.257-.1.061.268c.013.059,1.3,5.946-1.332,10.835s-8.264,7.045-8.321,7.067l-.257.1Zm9.557-17.344c-1.127.485-5.576,2.607-7.8,6.737s-1.555,9.014-1.341,10.221c1.127-.484,5.574-2.6,7.8-6.737s1.556-9.01306,1.342-10.221Z"/><path class="g" d="M148.006,213.894c-4.738,2.85-6.563,8.512-6.563,8.512s5.857,1.04,10.595-1.81,6.563-8.512,6.563-8.512S152.744,211.044,148.006,213.894Z"/><ellipse class="h" cx="209.49899" cy="98.97196" rx="68.5" ry="68.268"/><ellipse class="i" cx="209.49899" cy="98.97196" rx="67.5" ry="67.268"/><rect class="h" x="206.108" y="160.481" width="10.852" height="16.222"/><rect class="i" x="207.108" y="161.481" width="8.852" height="14.222"/><ellipse class="h" cx="209" cy="98.20298" rx="56" ry="56.5"/><ellipse class="i" cx="209" cy="98.20298" rx="55" ry="55.5"/><g class="j"><rect class="k" x="163.5" y="78.59001" width="94.759" height="48.953" rx="6"/><rect class="l" x="164.5" y="79.59001" width="92.759" height="46.953" rx="5"/></g><circle class="m" cx="193.879" cy="90.20298" r="3"/><circle class="m" cx="185.879" cy="90.20298" r="3"/><circle class="m" cx="177.879" cy="90.20298" r="3"/><path class="h" d="M245.008,33.836l31.606,5.0059L272.8596,62.5464,256.393,61.03687,250.83424,63.532l-4.42946-3.65694-5.15121-2.33457Z"/><path class="n" d="M273.55954,37.40829l-24.93321-3.949a5.624,5.624,0,0,0-6.41624,4.66168L239.6552,54.25185a5.618,5.618,0,0,0,4.66167,6.41625l3.18431.50434,1.38867,6.47192a1.351,1.351,0,0,0,1.11521,1.02609,1.23,1.23,0,0,0,1.37772-.63125l3.32063-5.726,14.26024,2.2586a5.622,5.622,0,0,0,6.42217-4.66073l2.5552-16.1329A5.226,5.226,0,0,0,274.0446,37.498Q273.80431,37.44172,273.55954,37.40829Zm-.66617,22.10494a2.807,2.807,0,0,1-3.20355,2.32751l-15.24-2.41378a1.231,1.231,0,0,0-1.37475.63171l-2.11887,3.50165-.92846-3.98227a1.356,1.356,0,0,0-1.11522-1.02609l-4.15619-.65828a2.809,2.809,0,0,1-2.32752-3.20354l2.55505-16.13192a2.816,2.816,0,0,1,3.20355-2.32751l24.9332,3.949a2.813,2.813,0,0,1,2.32752,3.20355ZM248.54513,47.61989a1.39088,1.39088,0,1,0-.00167-.0023l-.00047.003Zm8.1504,1.2909a1.39088,1.39088,0,1,0-.00166-.0023l-.00048.003Zm8.20572,1.29966a1.39088,1.39088,0,1,0-.00167-.00231l-.00047.003Z"/><path class="o" d="M203.665,186.34H168.132a1.072,1.072,0,0,1-1.07-1.07V173.282a1.072,1.072,0,0,1,1.07-1.07h35.534a1.072,1.072,0,0,1,1.07,1.07v11.987A1.072,1.072,0,0,1,203.665,186.34Z"/><path class="o" d="M203.665,215.995H168.132c-.591,0-1.07-.957-1.07-2.136v-23.92c0-1.179.479-2.134,1.07-2.136h35.534c.591,0,1.07.957,1.07,2.136v23.92C204.735,215.039,204.256,215.994,203.665,215.995Z"/><path class="p" d="M118.197,210.544a3.2551,3.2551,0,0,0,3.143-.554,6.458,6.458,0,0,0,1.727-3.856l.831-4.17-1.739,1.2a12.66713,12.66713,0,0,0-3.4,3,4.3,4.3,0,0,0-.548,4.3"/><path class="q" d="M118.465,215.882a20.91582,20.91582,0,0,1-.29-4.822,7.58506,7.58506,0,0,1,1.462-3.976,6.61336,6.61336,0,0,1,1.7-1.538c.17-.107.326.162.157.268a6.289,6.289,0,0,0-2.488,3,10.08008,10.08008,0,0,0-.535,4.342c.056.885.176,1.764.3,2.642a.161.161,0,0,1-.109.191.156.156,0,0,1-.191-.109Z"/><path class="p" d="M120.038,213.328a2.39994,2.39994,0,0,0,2.088,1.078,4.75321,4.75321,0,0,0,2.731-1.488l2.346-2.071-1.553-.074a9.31593,9.31593,0,0,0-3.326.241,3.167,3.167,0,0,0-2.239,2.274"/><path class="q" d="M117.847,216.799c1.054-1.865,2.276-3.937,4.461-4.6a4.97708,4.97708,0,0,1,1.876-.194c.2.017.149.324-.049.307a4.624,4.624,0,0,0-2.994.792,7.783,7.783,0,0,0-2.058,2.221c-.341.519-.646,1.06-.951,1.6C118.033,217.099,117.748,216.974,117.847,216.799Z"/><path class="p" d="M223.789,212.764a2.4,2.4,0,0,1-2.294.509,4.75418,4.75418,0,0,1-2.26-2.137l-1.739-2.6,1.52.325a9.31513,9.31513,0,0,1,3.153,1.083,3.167,3.167,0,0,1,1.583,2.771"/><path class="q" d="M225.023,216.685c-.542-2.072-1.194-4.388-3.137-5.587a4.97785,4.97785,0,0,0-1.764-.667c-.2-.034-.227.275-.031.31a4.62423,4.62423,0,0,1,2.692,1.531,7.78221,7.78221,0,0,1,1.422,2.673c.2.589.354,1.19.511,1.79C224.766,216.926,225.074,216.879,225.023,216.685Z"/><rect class="m" x="172.62701" y="175.42295" width="9.419" height="1.07"/><circle class="m" cx="194.45999" cy="176.06495" r="0.642"/><circle class="m" cx="196.60101" cy="176.06495" r="0.642"/><circle class="m" cx="198.74201" cy="176.06495" r="0.642"/><path class="m" d="M190.27,160.507l-.039-.029h0a.481.481,0,0,0-.67285.09985l-.00013.00015-8,10.769h-.88v-.207a.192.192,0,0,0-.192-.192h-.525a.192.192,0,0,0-.192.192h0v.207h-.3v-.207a.192.192,0,0,0-.192-.192h-.525a.192.192,0,0,0-.192.192h0v.207h-.3v-.207a.192.192,0,0,0-.192-.192h-.525a.192.192,0,0,0-.192.192h0v.207h-.3v-.207a.192.192,0,0,0-.192-.192h-.525a.192.192,0,0,0-.192.192h0v.207h-.3v-.207a.192.192,0,0,0-.192-.192H175.109a.192.192,0,0,0-.192.192h0v.207h-.3v-.207a.192.192,0,0,0-.192-.192H173.9a.192.192,0,0,0-.192.192h0v.207h-.3v-.207a.192.192,0,0,0-.192-.192h-.525a.192.192,0,0,0-.192.192h0v.207h-.3v-.207a.192.192,0,0,0-.192-.192h-.525a.192.192,0,0,0-.192.192h0v.207h-.3v-.207a.192.192,0,0,0-.192-.192h-.525a.192.192,0,0,0-.192.192h0v.207h-.3v-.207a.192.192,0,0,0-.192-.192h-.525a.192.192,0,0,0-.192.192h0v.207h-.381a.481.481,0,0,0-.481.481h0v.459a.481.481,0,0,0,.481.481H181.479a.716.716,0,0,0,.7-.571h.005l8.183-11.018h0A.481.481,0,0,0,190.27,160.507Z"/><path class="r" d="M139.718,212.655l1.616.827,3.958-5.839-2.385-1.22Z"/><path class="s" d="M139.579,211.914l3.182,1.628h0a2.278,2.278,0,0,1,.99017,3.06561l-.00018.00037-.034.066-5.21-2.666Z"/><path class="r" d="M158.382,214.915h1.815l.863-7h-2.679Z"/><path class="s" d="M157.92,214.322h3.575a2.278,2.278,0,0,1,2.278,2.278h0v.074h-5.852Z"/><path class="t" d="M149.892,157.812s-1.215-.931-1.215,1.343l-.192,7.516,2.143,7.1,1.247-2.3-.512-4.99Z"/><path class="s" d="M162.896,178.37s1.409,6.864-.376,12.5l-.987,21.658-3.617-.282-1.268-16.067-1.221-7.987-2.537,7.282-8.362,15.41-3.852-3.007s4.269-11.648,7.423-14.094l1.582-18.015Z"/><circle class="r" cx="158.60709" cy="144.51006" r="4.125"/><path class="s" d="M158.314,145.384c.494.064.867-.442,1.04-.909s.3-1.012.735-1.265c.587-.345,1.339.07,2.01-.044a1.761,1.761,0,0,0,1.29-1.7,5.14789,5.14789,0,0,0-.567-2.216l-.1.88a1.746,1.746,0,0,0-.763-1.526l.135,1.292a1.371,1.371,0,0,0-1.57211-1.13479l-.00489.00079.021.77a12.71356,12.71356,0,0,0-2.638-.129,3.811,3.811,0,0,0-3.667,4.541,11.348,11.348,0,0,0,1.23,3.741c.142.3.339.639.669.677a.674.674,0,0,0,.66-.5,1.80029,1.80029,0,0,0-.008-.885,3.76359,3.76359,0,0,1-.11-1.339,1.092,1.092,0,0,1,.845-.937c.447-.054.905.457.69.853Z"/><path class="u" d="M163.149,180.206l-13.768-.888,1.036-4.293,12.584,2.813Z"/><path class="t" d="M154.659,150.134l.864-1.2a34.77159,34.77159,0,0,1,3.55,1.615l.183,1.123,4.487,27.6-8.156-.352-2.221-.047-.727-1.629-.9,1.595-2.169-.046-2.207-1.279,2.175-6.653.7-6.077-1.087-5.725a7.29,7.29,0,0,1,3.9-8.092Z"/><path class="r" d="M173.043,171.027a1.41,1.41,0,0,1-1.753-1.264l-4.839-1.3,1.947-1.728,4.3,1.5a1.417,1.417,0,0,1,.349,2.793Z"/><path class="t" d="M170.879,170.296a.826.826,0,0,1-.67.053l-7.96-3.021a8.5,8.5,0,0,1-4.575-3.856l-3.32-5.922a2.65734,2.65734,0,1,1,3.965-3.539l5.746,9.107,7.231,4.239a.827.827,0,0,1,.352.88l-.36,1.524a.82493.82493,0,0,1-.408.535Z"/><path class="u" d="M232.274,216.978H105.508a.1345.1345,0,1,1,0-.269H232.274a.1345.1345,0,0,1,0,.269Z"/><rect class="t" x="202" y="174.70298" width="19" height="39" rx="6"/><rect class="v" x="202.5" y="175.20298" width="18" height="38" rx="5.5"/></svg>