<svg xmlns="http://www.w3.org/2000/svg" xmlns:xlink="http://www.w3.org/1999/xlink" viewBox="0 0 390 240"><defs><style>.a{fill:#fff;}.b{fill:#c6c7c6;}.c{fill:url(#a);}.d{fill:url(#b);}.e{opacity:0.6;isolation:isolate;fill:url(#c);}.f{opacity:0.1;}.g{fill:#eee;}.h,.l{fill:none;stroke:#c6c7c6;}.h{stroke-width:2px;stroke-dasharray:4;}.i{fill:#ececec;}.j{fill:#e6e6e6;}.k{fill:#e97c2c;}.m{fill:#01cc83;}.n{fill:#3f3d56;}.o{fill:#ffb7b7;}.p{fill:#2f2e41;}</style><linearGradient id="a" x1="-1458.11158" y1="-558.18647" x2="-1458.11158" y2="-557.1867" gradientTransform="translate(442367.35938 91734.47303) scale(303.25 164.24921)" gradientUnits="userSpaceOnUse"><stop offset="0" stop-color="#f8f8f8" stop-opacity="0.082"/><stop offset="1" stop-color="#7c7c7c" stop-opacity="0.059"/></linearGradient><linearGradient id="b" x1="-1458.11158" y1="-557.45522" x2="-1458.11158" y2="-556.45523" gradientTransform="translate(442367.35938 65365.61105) scale(303.25 117.0779)" xlink:href="#a"/><linearGradient id="c" x1="-1459.25584" y1="-552.67698" x2="-1459.25584" y2="-551.67698" gradientTransform="translate(562008.5 22683.6348) scale(385 40.688)" gradientUnits="userSpaceOnUse"><stop offset="0" stop-color="#f0eeef" stop-opacity="0"/><stop offset="1" stop-color="#d5d5d5"/></linearGradient></defs><path class="a" d="M89.7,87.513H68.3a7.42581,7.42581,0,0,1-5.8-11.9,6.50654,6.50654,0,0,1,3.7-2.6l.4-.1.2-.4a7.26062,7.26062,0,0,1,6.4-3.9,7.79852,7.79852,0,0,1,2.2.3l.8.3.4-.8a7.26062,7.26062,0,0,1,6.4-3.9,7.543,7.543,0,0,1,5.1,2.1,7.69389,7.69389,0,0,1,2.2,5.2v.8l.8.2a7.4302,7.4302,0,0,1-1.4,14.7Z"/><path class="b" d="M89.7,86.513a6.419,6.419,0,0,0,1.2-12.7l-1.6-.3v-1.6a6.36176,6.36176,0,0,0-1.9-4.5,6.1059,6.1059,0,0,0-9.9,1.5l-.8,1.5-1.6-.5a6.15222,6.15222,0,0,0-7.4,3.1l-.4.7-.8.2a6.17907,6.17907,0,0,0-3.2,2.3,6.11593,6.11593,0,0,0-1.3,3.9,6.35943,6.35943,0,0,0,6.3,6.4H89.7m0,2H68.3a8.3652,8.3652,0,0,1-8.3-8.4,8.5287,8.5287,0,0,1,5.9-8.1,8.263,8.263,0,0,1,7.3-4.4,6.90455,6.90455,0,0,1,2.5.4,8.16638,8.16638,0,0,1,7.3-4.5,8.4095,8.4095,0,0,1,8.3,8.3,8.44136,8.44136,0,0,1-1.6,16.7Z"/><path class="a" d="M285.3,157.488H265.2a6.77578,6.77578,0,0,1-5.3-10.9,7.34288,7.34288,0,0,1,3.4-2.4l.4-.1.2-.4a6.71091,6.71091,0,0,1,5.9-3.6,6.44772,6.44772,0,0,1,2,.3l.8.3.4-.7a6.97684,6.97684,0,0,1,6-3.5,6.34488,6.34488,0,0,1,4.7,2,6.5084,6.5084,0,0,1,2,4.7v.8l.8.1a6.75929,6.75929,0,0,1-1.2,13.4Z"/><path class="b" d="M285.3,156.488a5.69732,5.69732,0,0,0,5.7-5.7,5.77911,5.77911,0,0,0-4.6-5.6l-1.6-.3v-1.6a5.60578,5.60578,0,0,0-1.7-4,5.54038,5.54038,0,0,0-4.1-1.8,5.82078,5.82078,0,0,0-5.1,3.1l-.8,1.5-1.5-.6a5.07921,5.07921,0,0,0-1.7-.3,5.92827,5.92827,0,0,0-5.1,3l-.4.8-.8.3a5.772,5.772,0,0,0-4.1,5.4,5.78389,5.78389,0,0,0,5.7,5.8h20.1m0,2H265.2a7.76958,7.76958,0,0,1-2.2-15.2,7.83305,7.83305,0,0,1,6.8-4.1,6.72248,6.72248,0,0,1,2.4.4,7.69587,7.69587,0,0,1,14.5,3.6,7.71548,7.71548,0,0,1-1.4,15.3Z"/><path class="c" d="M189.4,52.899c142.5-5,159.7,160.1,157,164.1H43.4S46.9,57.799,189.4,52.899Z"/><path class="d" d="M189.4,99.999c142.5-3.5,159.7,114.2,157,117H43.4S46.9,103.499,189.4,99.999Z"/><ellipse class="e" cx="195" cy="216.69901" rx="192.5" ry="20.29999"/><g class="f"><path class="g" d="M123,192.557a44.45358,44.45358,0,0,1,12.5,1.8,42.26643,42.26643,0,0,1,10.2,4.3,27.86973,27.86973,0,0,1,6.8,5.4c1.6,1.8,2.4,3.5,2.4,4.9v7.2h-32l-12.4-.4v.3H68.6v-3.3a7.10449,7.10449,0,0,1,1.9-4.7,17.00641,17.00641,0,0,1,5.2-4c4.6-2.4,10.8-3.7,17.5-3.7a17.70205,17.70205,0,0,1,2.3.1h.2l.2-.1a31.96346,31.96346,0,0,1,11.4-5.6A52.73481,52.73481,0,0,1,123,192.557Z"/><path class="b" d="M154.5,215.657v-6.7c0-1.3-.8-2.9-2.3-4.6a27.0213,27.0213,0,0,0-6.7-5.3,45.83962,45.83962,0,0,0-10.1-4.3,43.64963,43.64963,0,0,0-12.4-1.7,56.73718,56.73718,0,0,0-15.7,2.1,30.92829,30.92829,0,0,0-11.2,5.6l-.3.3h-.4a17.70205,17.70205,0,0,0-2.3-.1c-6.5,0-12.7,1.3-17.3,3.7a14.96434,14.96434,0,0,0-5.1,3.9,6.61837,6.61837,0,0,0-1.7,4.4v2.6h41.5v-.3l12.6.4h31.4m1,1H123l-12.5-.4c2.4.2,3.9.3,3.8.3H68.1v-3.8c0-7.2,11.2-13,25.1-13a19.269,19.269,0,0,1,2.4.1c5.7-4.8,15.9-7.9,27.5-7.9,17.9.1,32.4,10.8,32.4,17Z"/></g><path class="a" d="M175,170.499H116a20.0588,20.0588,0,0,1-20-20v-103a20.0588,20.0588,0,0,1,20-20h59a20.0588,20.0588,0,0,1,20,20v103A20.0588,20.0588,0,0,1,175,170.499Z"/><path class="h" d="M175,169.499H116a18.99157,18.99157,0,0,1-19-19v-103a18.99157,18.99157,0,0,1,19-19h59a18.99157,18.99157,0,0,1,19,19v103A18.99157,18.99157,0,0,1,175,169.499Z"/><path class="a" d="M211.234,190.997h-75a17.25934,17.25934,0,0,1-12.1-4.8,15.77452,15.77452,0,0,1-5-11.4V58.197a15.60728,15.60728,0,0,1,5-11.4,17.6778,17.6778,0,0,1,12.2-4.8h102.7c.9,0,1.4.1,1.7.1a3.78244,3.78244,0,0,1-.7.8c-.6.6-1.4,1.3-2.3,2.1a51.993,51.993,0,0,0-5.9,5.7q-3.3,3.9-3.3,7.5v116.7a15.6073,15.6073,0,0,1-5,11.4A18.00923,18.00923,0,0,1,211.234,190.997Z"/><path class="b" d="M136.334,42.997a16.36536,16.36536,0,0,0-11.4,4.5,14.53761,14.53761,0,0,0-4.7,10.7v116.7a14.87159,14.87159,0,0,0,4.7,10.7,16.36541,16.36541,0,0,0,11.4,4.5h75a16.36541,16.36541,0,0,0,11.4-4.5,14.87159,14.87159,0,0,0,4.7-10.7V58.197c0-2.6,1.2-5.3,3.5-8.1a54.32145,54.32145,0,0,1,6.1-5.8,17.41227,17.41227,0,0,0,1.4-1.2h-102.1m0-2.1h102.7c10,0-9.6,7.7-9.6,17.2v116.7c0,9.5-8.1,17.2-18.1,17.2h-75c-10-.1-18.1-7.7-18.1-17.2V58.197C118.234,48.697,126.334,40.997,136.334,40.997Z"/><path class="i" d="M250.1,140.597H227v-81.5a21.12938,21.12938,0,0,1,3.5-12.2c2.2-3.2,5-4.9,8.1-4.9s5.9,1.7,8.1,4.9a21.35462,21.35462,0,0,1,3.5,12.2v81.5Z"/><path class="b" d="M238.6,42.997c-2.7,0-5.3,1.6-7.3,4.4a19.17127,19.17127,0,0,0-2.4,5.2,22.69242,22.69242,0,0,0-.9,6.5v80.6h21.1v-80.6a23.19756,23.19756,0,0,0-.9-6.5,20.68371,20.68371,0,0,0-2.4-5.2c-2-2.8-4.6-4.4-7.2-4.4m0-2c6.9,0,12.6,8.1,12.6,18.1v82.6H226.1v-82.6C226,49.097,231.6,40.997,238.6,40.997Z"/><path class="a" d="M258.235,140.588h-8.3v-40.6h17.2v33.5a6.729,6.729,0,0,1-2.5,4.9A10.33375,10.33375,0,0,1,258.235,140.588Z"/><path class="b" d="M258.235,139.588a8.79865,8.79865,0,0,0,5.7-2,5.65213,5.65213,0,0,0,2.2-4.1v-32.5h-15.2v38.6h7.3m0,2h-9.2v-42.6h19.2v34.5C268.135,137.688,263.735,141.588,258.235,141.588Z"/><rect class="j" x="137.39999" y="80.999" width="67.19998" height="3"/><rect class="j" x="137.39999" y="111.29899" width="67.19998" height="3"/><rect class="j" x="137.39999" y="88.499" width="24" height="3"/><rect class="j" x="137.39999" y="118.79899" width="24" height="3"/><rect class="j" x="137.39999" y="95.999" width="47.70001" height="3"/><circle class="a" cx="123.20001" cy="181.39902" r="13.5"/><rect class="j" x="137.39999" y="126.29899" width="47.70001" height="3"/><path class="k" d="M123.5,162.399a18.9,18.9,0,1,0,18.9,18.9,18.88484,18.88484,0,0,0-18.9-18.9Z"/><path class="a" d="M123.34285,187.37084l-9.11487-5.448,9.11487-15.19145Z"/><path class="a" d="M123.34285,196.06663l-8.90533-12.78177,8.90533,5.3432Z"/><path class="a" d="M123.65715,187.37084l9.11487-5.448-9.11487-15.19145Z"/><path class="a" d="M123.76192,196.06663l9.0101-12.78177-9.0101,5.3432Z"/><circle class="a" cx="257.5" cy="29.499" r="8.5"/><circle class="l" cx="257.5" cy="29.499" r="8"/><circle class="a" cx="64" cy="138.999" r="4"/><circle class="l" cx="64" cy="138.999" r="3.5"/><circle class="a" cx="177" cy="15.999" r="4"/><circle class="l" cx="177" cy="15.999" r="3.5"/><path class="k" d="M217.2,21.699l1.9,6.2,6.2,1.9-6.2,1.9-1.9,6.2-1.9-6.2-6.2-1.9,6.2-1.9Z"/><path class="k" d="M240.5,156.799l1.3,4.3,4.3,1.3-4.3,1.3-1.3,4.3-1.3-4.3-4.3-1.3,4.3-1.3Z"/><path class="m" d="M171.07472,140.86584l1.72134-3.72654,9.72309-8.58261a2.04687,2.04687,0,0,1,1.04142-.44207,1.70884,1.70884,0,0,1,1.83283,1.60334.34912.34912,0,0,0,.0178.22289c-.03746.09272.0178.2229-.01966.31563a1.80291,1.80291,0,0,1-.56.85225l-9.72309,8.58262Z"/><path class="n" d="M184.24707,128.28413l-10.56129,9.3225-.38867-.37273,10.226-9.02654a1.44492,1.44492,0,0,1,.72394.07677Z"/><path class="n" d="M185.16863,130.27427l-10.18857,8.93382-.38867-.37273,10.56129-9.3225c.05527.13018.01781.2229.03561.4458C185.281,129.99611,185.24355,130.08883,185.16863,130.27427Z"/><path class="n" d="M185.02441,129.02961l-10.69147,9.37776-.38868-.37274,10.72894-9.47047c.09272.03746.05526.13018.148.16764S184.96915,128.89943,185.02441,129.02961Z"/><path class="n" d="M171.986,140.479l-.74362.23882.61717-1.26059A4.053,4.053,0,0,1,171.986,140.479Z"/><path class="o" d="M214.659,178.196a2.416,2.416,0,0,1,0-3.5l.3-.3-2.4-8.5,4.4,1.4,1.6,7.9a2.60747,2.60747,0,0,1-.9,3.5,2.46668,2.46668,0,0,1-3-.5Z"/><path class="k" d="M213.359,172.996h.2l4.2-.1a1.10976,1.10976,0,0,0,1.1-1.1v-.1l-4.3-28.9a3.62971,3.62971,0,0,0-3.5-3h0a3.54313,3.54313,0,0,0-3.5,3.5,1.9494,1.9494,0,0,0,.1.8l3,12.3,1.7,15.6A1.64292,1.64292,0,0,0,213.359,172.996Z"/><path class="o" d="M211.659,218.696h-2.3l-1.1-9.1h3.5Z"/><path class="p" d="M212.259,217.896h-4.6a2.90208,2.90208,0,0,0-2.9,2.9v.1h7.6Z"/><path class="o" d="M201.659,217.896l-2.4.3-2.1-8.9,3.4-.4Z"/><path class="p" d="M202.159,217.096l-4.6.5h0a2.95082,2.95082,0,0,0-2.6,3.3v.1l7.5-.8Z"/><path class="p" d="M213.859,168.196s3.2,7.1.4,11.8l-1.7,36h-3.9l-3.8-29.1-6.7,8.6,4.1,20.1-4.8.3-6.6-20.3s5.1-22.5,6.8-23l1.1-5.1Z"/><path class="o" d="M176.859,133.196a2.15932,2.15932,0,0,0,2.3,2.1h.4l2.9,4.2,3-1.1-4.2-5.8a2.17654,2.17654,0,0,0-2.8-1.5,1.98286,1.98286,0,0,0-1.6,2.1Z"/><path class="k" d="M201.359,138.596l4.1-1.9,5.2.4s6.3,7.4,3.8,14.5l1.5,24.7c-9.7,2.7-14.1-2.3-21.1-.2l2.2-27.5Z"/><path class="k" d="M204.059,140.396l-2.7-1.8s-3.8-.6-5.3.9c0,0-5.2.4-6.4,1.7l-1.4.3-4.6-5.9-2.8,1.5,4,10.9,12,.6Z"/><circle class="o" cx="206.25901" cy="128.99602" r="6.5"/><path class="p" d="M211.859,123.896c-1.2-2.1-2.6-3.4-5-3.4s-4.4,0-5.5,2.1a3.28682,3.28682,0,0,1-.4-1.7,1.96141,1.96141,0,0,0-.9,2,1.38733,1.38733,0,0,1-.7-1.2,1.63026,1.63026,0,0,0-.7,2,.09794.09794,0,0,0,.1.1,4.53956,4.53956,0,0,0,1.9,1.5c.8.4.4,2.3.9,2.9a7.74064,7.74064,0,0,1,.7,1.6h0a1.59592,1.59592,0,0,1,.8,1.4v.1a8.50851,8.50851,0,0,0,2.6,3.3,4.20881,4.20881,0,0,0,3.3.5,5.96335,5.96335,0,0,0,3.1-2.1,13.52937,13.52937,0,0,0,1.7-3.4,6.51626,6.51626,0,0,0,.3-3.4,2.793,2.793,0,0,0-2.2-2.1"/><path class="a" d="M244.6,212.199c1.1,2,.2,8.6.2,8.6s-6.2-2.6-7.3-4.6a4.12311,4.12311,0,0,1,1.8-5.5A4.17892,4.17892,0,0,1,244.6,212.199Z"/><path class="a" d="M254.7,214.499c-1.5,2.7-10,6.5-10,6.5s-1.4-9.2.1-11.9a5.63951,5.63951,0,0,1,9.9,5.4Z"/><path class="a" d="M163.3,221.899v-23.5S154.1,215.099,163.3,221.899Z"/><path class="a" d="M162.7,221.899l17.3-15.9S161.6,210.499,162.7,221.899Z"/></svg>