<svg xmlns="http://www.w3.org/2000/svg" xmlns:xlink="http://www.w3.org/1999/xlink" viewBox="0 0 390 240"><defs><style>.a,.d,.k,.l{fill:none;}.b{fill:url(#a);}.c{fill:#fff;}.d,.k,.l{stroke:#c6c7c6;stroke-width:2px;}.d{stroke-dasharray:4;}.e{fill:url(#b);}.f{opacity:0.6;fill:url(#c);}.f,.l,.q,.s,.t,.y{isolation:isolate;}.g,.t{opacity:0.1;}.h{fill:#eee;}.i{fill:#c6c7c6;}.j{fill:#f8f8f8;}.l{stroke-linecap:round;opacity:0.2;}.m{fill:#f1f1f1;}.n{clip-path:url(#d);}.o{fill:url(#e);}.p{fill:#f7c4a7;}.q{opacity:0.05;}.r{fill:#575988;}.s,.v{fill:#2f2e41;}.u{fill:#f3b5b7;}.w{fill:#dddbe2;}.x{fill:#e97c2c;}.y{fill:#ffbb89;opacity:0.48;}</style><linearGradient id="a" x1="-2102.40034" y1="398.2259" x2="-2102.40034" y2="397.27793" gradientTransform="matrix(303.25, 0, 0, -164.24921, 637748.125, 65470.68292)" gradientUnits="userSpaceOnUse"><stop offset="0" stop-color="#f8f8f8" stop-opacity="0.082"/><stop offset="1" stop-color="#7c7c7c" stop-opacity="0.059"/></linearGradient><linearGradient id="b" x1="-2102.40034" y1="397.12924" x2="-2102.40034" y2="396.18139" gradientTransform="matrix(303.25, 0, 0, -117.0779, 637748.125, 46602.08505)" xlink:href="#a"/><linearGradient id="c" x1="-2104.12026" y1="389.9867" x2="-2104.12026" y2="389.0387" gradientTransform="matrix(385, 0, 0, -40.688, 810281.5, 16066.20332)" gradientUnits="userSpaceOnUse"><stop offset="0" stop-color="#f0eeef" stop-opacity="0"/><stop offset="1" stop-color="#d5d5d5"/></linearGradient><clipPath id="d"><path class="a" d="M267.2,169.69794a28.88027,28.88027,0,0,1-12.3,23.7c-.1.1-.2.1-.2.2a12.49526,12.49526,0,0,0-1.2.9,6.91378,6.91378,0,0,1-1.9,1,10.9103,10.9103,0,0,0-1.1.6c-.1,0-.2.1-.3.1q-1.05.45007-2.1.9a23.20338,23.20338,0,0,1-5.8,1.3,22.95987,22.95987,0,0,1-3.7.2,12.10418,12.10418,0,0,1-1.9-.1,8.75407,8.75407,0,0,1-1.6-.2c-.9-.1-1.7-.3-2.6-.4h-.1a41.28245,41.28245,0,0,1-5-1.5c-.5-.2-.9-.4-1.3-.6-.6-.3-1-.6-1.6-.9a28.84728,28.84728,0,0,1,27.9-50.5,29.16885,29.16885,0,0,1,14.8,25.30005Z"/></clipPath><linearGradient id="e" x1="669.30003" y1="-403.21191" x2="669.30003" y2="-356.1012" gradientTransform="matrix(1, 0, 0, -1, -432, -200)" gradientUnits="userSpaceOnUse"><stop offset="0" stop-color="gray" stop-opacity="0.25"/><stop offset="0.54" stop-color="gray" stop-opacity="0.12"/><stop offset="1" stop-color="gray" stop-opacity="0.1"/></linearGradient></defs><rect class="a" x="5.60001" y="1.89801" width="379.20004" height="237"/><path class="b" d="M189.9,62.498c135.1-4.7,151.4,151.8,148.8,155.6H51.5C51.5,217.998,54.8,67.098,189.9,62.498Z"/><path class="c" d="M178.2,3.798h55.9a19.05581,19.05581,0,0,1,19,19v105.2a19.05582,19.05582,0,0,1-19,19H178.2a19.05581,19.05581,0,0,1-19-19V22.698A18.97048,18.97048,0,0,1,178.2,3.798Z"/><path class="d" d="M178.2,4.698h55.9a17.9886,17.9886,0,0,1,18,18v105.3a17.9886,17.9886,0,0,1-18,18H178.2a17.98861,17.98861,0,0,1-18-18V22.698A17.925,17.925,0,0,1,178.2,4.698Z"/><path class="e" d="M189.9,107.098c135.1-3.3,151.4,108.30005,148.8,110.9H51.5S54.8,110.398,189.9,107.098Z"/><ellipse class="f" cx="195.20001" cy="217.69794" rx="182.5" ry="19.19995"/><g class="g"><path class="h" d="M127,194.858a43.87164,43.87164,0,0,1,11.9,1.7,39.85346,39.85346,0,0,1,9.7,4.1,24.72105,24.72105,0,0,1,6.4,5.1c1.5,1.7,2.3,3.3,2.3,4.6v6.8H127l-11.8-.4v.3H75.4v-3.1a7.205,7.205,0,0,1,1.8-4.5,15.16033,15.16033,0,0,1,4.9-3.8c4.4-2.3,10.2-3.5,16.6-3.5a16.20205,16.20205,0,0,1,2.2.1h.2l.2-.1a29.475,29.475,0,0,1,10.8-5.3A53.69532,53.69532,0,0,1,127,194.858Z"/><path class="i" d="M156.8,216.758v-6.4c0-1.2-.8-2.7-2.2-4.4a24.55685,24.55685,0,0,0-6.4-5,46.25229,46.25229,0,0,0-9.6-4.1,43.0414,43.0414,0,0,0-11.8-1.6,55.29237,55.29237,0,0,0-14.9,2,27.72165,27.72165,0,0,0-10.6,5.3l-.3.3h-.4a16.20205,16.20205,0,0,0-2.2-.1c-6.2,0-12,1.2-16.4,3.5a13.31781,13.31781,0,0,0-4.8,3.7,6.32543,6.32543,0,0,0-1.6,4.2v2.5h39.6v-.3l11.9.4h29.7m1,1H127l-11.9-.4c2.3.2,3.7.3,3.6.3H74.8v-3.6c.1-6.9,10.7-12.4,23.9-12.4a17.70205,17.70205,0,0,1,2.3.1c5.4-4.6,15.1-7.5,26.1-7.5,17,.1,30.7,10.2,30.7,16.1Z"/></g><path class="j" d="M128.9,36.998H217a19.05581,19.05581,0,0,1,19,19v143.2a19.05581,19.05581,0,0,1-19,19H128.9a19.05581,19.05581,0,0,1-19-19V55.898A18.97048,18.97048,0,0,1,128.9,36.998Z"/><path class="k" d="M128.9,37.898H217a17.9886,17.9886,0,0,1,18,18v143.2a17.9886,17.9886,0,0,1-18,18H128.9a17.98861,17.98861,0,0,1-18-18V55.898A17.925,17.925,0,0,1,128.9,37.898Z"/><path class="c" d="M130.8,57.798H219a8.49287,8.49287,0,0,1,8.5,8.50006v123.2a8.49289,8.49289,0,0,1-8.5,8.5H130.8a8.49289,8.49289,0,0,1-8.5-8.5V66.298A8.36805,8.36805,0,0,1,130.8,57.798Z"/><path class="c" d="M210.4,127.998h52.1a19.05581,19.05581,0,0,1,19,19v52.1a19.05581,19.05581,0,0,1-19,19H210.4a19.05581,19.05581,0,0,1-19-19v-52.2A19.035,19.035,0,0,1,210.4,127.998Z"/><path class="k" d="M210.4,128.898h52.1a17.9886,17.9886,0,0,1,18,18v52.1a17.9886,17.9886,0,0,1-18,18H210.4a17.9886,17.9886,0,0,1-18-18v-52.1A17.9886,17.9886,0,0,1,210.4,128.898Z"/><path class="c" d="M282,100.498H236.4a16.72291,16.72291,0,0,1-11.8-4.8,16.8582,16.8582,0,0,1-1.5-21.8,14.05729,14.05729,0,0,1,3.7-3.6,15.81739,15.81739,0,0,1,4.7-2.3h.5l.2-.4a16.51617,16.51617,0,0,1,14.6-8.7,16.86937,16.86937,0,0,1,5,.8l.8.3.4-.8a16.61562,16.61562,0,0,1,31.4,7.5v.8l.8.2a16.42335,16.42335,0,0,1,13.5,16.2,16.72288,16.72288,0,0,1-4.8,11.8A17.31518,17.31518,0,0,1,282,100.498Z"/><path class="i" d="M282,99.498a15.33332,15.33332,0,0,0,11.1-4.6,15.68881,15.68881,0,0,0-8.1-26.5l-1.5-.3v-1.5a15.70661,15.70661,0,0,0-15.6-15.6,15.64278,15.64278,0,0,0-13.9,8.4l-.8,1.4-1.5-.5a14.96072,14.96072,0,0,0-4.7-.8,16.30269,16.30269,0,0,0-14,8.5l-.4.7-.8.2a12.29167,12.29167,0,0,0-4.3,2.1,15.55632,15.55632,0,0,0-6.6,12.9,15.33332,15.33332,0,0,0,4.6,11.1,15.74377,15.74377,0,0,0,11.1,4.6h45.2c0-.1.1-.1.2-.1m0,1.9H236.4a17.5169,17.5169,0,0,1-5-34.3,17.45492,17.45492,0,0,1,15.5-9.3,15.12025,15.12025,0,0,1,5.3.9,17.49283,17.49283,0,0,1,33,7.9,17.56284,17.56284,0,0,1-3.2,34.8Z"/><path class="i" d="M260.3,85.498l-11.1-6.6,11.1-18.5Z"/><path class="i" d="M260.3,96.098l-10.9-15.5,10.8,6.5.1,9Z"/><path class="i" d="M260.7,85.498l11.1-6.6-11.1-18.5Z"/><path class="i" d="M260.8,96.098l10.9-15.5-11,6.5.1,9Z"/><line class="l" x1="129.29999" y1="67.79803" x2="144.5" y2="67.79803"/><line class="l" x1="129.29999" y1="183.39801" x2="144.5" y2="183.39801"/><line class="l" x1="157.79999" y1="183.39801" x2="172.89999" y2="183.39801"/><path class="m" d="M267.2,169.69794a28.88027,28.88027,0,0,1-12.3,23.7c-.1.1-.2.1-.2.2a12.49526,12.49526,0,0,0-1.2.9,6.91378,6.91378,0,0,1-1.9,1,10.9103,10.9103,0,0,0-1.1.6c-.1,0-.2.1-.3.1q-1.05.45007-2.1.9a23.20338,23.20338,0,0,1-5.8,1.3,22.95987,22.95987,0,0,1-3.7.2,12.10418,12.10418,0,0,1-1.9-.1,8.75407,8.75407,0,0,1-1.6-.2c-.9-.1-1.7-.3-2.6-.4h-.1a41.28245,41.28245,0,0,1-5-1.5c-.5-.2-.9-.4-1.3-.6-.6-.3-1-.6-1.6-.9a28.84728,28.84728,0,0,1,27.9-50.5,29.16885,29.16885,0,0,1,14.8,25.30005Z"/><g class="n"><path class="o" d="M270.4,178.598c-1.6-2-3.6-4.3-3.3-6.9.2-2.2-.3-4.2-.2-6.3a8.44929,8.44929,0,0,0-2.7-7.4c-1.3-1.1-3.4-2.1-4.1-1.8-1.2.5-2.7.3-4,.6a5.14121,5.14121,0,0,0-2.1,1,2.29738,2.29738,0,0,0-.5,2.8,4.883,4.883,0,0,0,1.9,6.6c.2.1.3.2.5.2a3.54771,3.54771,0,0,0-2,3c-.2,1.2-.6,2.5-.9,3.6q-.3.15-.6.3h.1c-.1,0-.2.1-.3.1.2.1.4.1.6.2a16.24153,16.24153,0,0,1-2.7,4.8s-2.7.6-3.8-.5a3.60424,3.60424,0,0,1,.4.5c-1-.5-2.7-1.1-4.3-1.7-1-.4-1.3,0-1.3.6a1.32944,1.32944,0,0,0-.8.3,7.01791,7.01791,0,0,1-.9-.6c-.6-.2-2.7-1.2-4.6,2.5-1.1,2.1-4.2,6-6.4,8.9-4.5,2.1-10.2,4.6-12.4,5.3h-1.4a5.19576,5.19576,0,0,1-.3-.5l-.1.1v-.1a11.1245,11.1245,0,0,1-5.5,1.9,3.59569,3.59569,0,0,1-1.1-.2,14.41552,14.41552,0,0,0-2.7-.5,1.66771,1.66771,0,0,0-1.4.5h0l-.1.1h0c0,.1-.1.1-.1.2h0c0,.1,0,.1-.1.2a.36757.36757,0,0,0,.1.3c0,.1.1.1.1.2l.1.1a23.65174,23.65174,0,0,0,2.6,1.8l.5.3.4.3.2.1.2.1.4.2.2.1.4.2.3.2c.8.5,1.6.9,2.4,1.3l.5.3h.1l.3.2.6.3.4.2.2.1.2.1h0l.4.2a.60134.60134,0,0,0,.4-.1c.1-.4.4-1.3.6-1.3a9.56323,9.56323,0,0,0,1.7-3.3h3a10.09575,10.09575,0,0,0,1.7-.3,3.01528,3.01528,0,0,1-2.2.8c-1.2-.3-2.5.5-2.6,1.2h0v.29993h0v.1h0v.1h0v.1h0a.09793.09793,0,0,0,.1.1h0l.1.1h0l.1.1h0l.1.1h.3l.1.1h.1c.1,0,.1,0,.2.1.1,0,.2.1.4.1h.4c.1,0,.3.1.4.1h.4l.4.1c.2,0,.5.1.8.1l.7.1.9.1h.5l.5.1h.3l.8.1h.3l.5.1a12.37043,12.37043,0,0,0,1.8.2l.7.1h2.1c.1,0,.2-.1.3-.2h0v-.1c0-.4.1-.8.1-1,0-.1,0-.1.1-.19995v-.1a.349.349,0,0,1,.1-.2c0-.1,0-.1.1-.2v-.2a11.83665,11.83665,0,0,0-.2-3.8,2.35355,2.35355,0,0,0-.2-.8h.1a1.33111,1.33111,0,0,0,.5-.3c2.3-.9,4.2-1.7,4.7-2.7a3.70808,3.70808,0,0,1,2.9.3c1.1.6,10,3.5,14.1,4.8.8.7,1.3,1,1.6.9,0,0,5.2.9,7.4-.9a1.23692,1.23692,0,0,1,.3.2s3-1.5,3.5-3.5a15.61878,15.61878,0,0,0,.4-2.7,3.621,3.621,0,0,0,1.1-2.7c.1-3.3,1.4-7.1,2.4-10.5a3.94654,3.94654,0,0,0,2.7-.7v-.1C270.3,178.598,270.4,178.598,270.4,178.598Zm-17.5,4.9-.6-.2a4.05326,4.05326,0,0,0,.5-.9Zm-3.4,1.4,3.5,2.1v1.4a27.6106,27.6106,0,0,1-3.5-3.5Zm-1.4-3.1c-.4-.2-.7-.3-.9-.4a2.76909,2.76909,0,0,1,.9.1c-.1,0-.1.2,0,.3Zm-9.6,3.5s.6-1.3,2,.9a15.85406,15.85406,0,0,0,1.1,1.6l-4-.6a3.32768,3.32768,0,0,0,.9-1.9Z"/><path class="p" d="M247.4,179.798s-2.8-1.1-5-2.1c-2.2-.9-.9,2.1-.9,2.1s3.7,1,3.7,1.1,3.1.3,3.1.3Z"/><path class="q" d="M247.4,179.798s-2.8-1.1-5-2.1c-2.2-.9-.9,2.1-.9,2.1s3.7,1,3.7,1.1,3.1.3,3.1.3Z"/><path class="r" d="M259.4,168.098s-5-2.7-5.9,2.6a20.90076,20.90076,0,0,1-3.7,8.7s-2.7.6-3.7-.5c0,0,2.6,2.9,1.3,3.2,0,0,2.7,1.9,3.9,1.3,1.1-.6,2.1-4.6,2.6-5.6C254.2,176.798,255.8,167.798,259.4,168.098Z"/><path class="s" d="M259.4,168.098s-5-2.7-5.9,2.6a20.90076,20.90076,0,0,1-3.7,8.7s-2.7.6-3.7-.5c0,0,2.6,2.9,1.3,3.2,0,0,2.7,1.9,3.9,1.3,1.1-.6,2.1-4.6,2.6-5.6C254.2,176.798,255.8,167.798,259.4,168.098Z"/><path class="p" d="M256.6,166.398s3.1,3.5,3.2,6.5c.2,2.9,3.5-3.1,3.9-3.2s-2.9-5.2-3.2-6.8C260.2,161.19794,256.6,166.398,256.6,166.398Z"/><polygon class="p" points="258.7 167.898 256.7 169.598 257.7 173.398 260.3 170.998 259.9 168.598 258.7 167.898"/><polygon class="p" points="217.8 194.098 214.4 194.098 215.7 197.498 218.9 196.498 217.8 194.098"/><path class="t" d="M215.1,193.69794s-3.5,2.5-6.5,1.7-3.8-.5-4.2.5c-.3.9,8.4,5.7,9.9,6.4.1,0,.2,0,.2-.1h0c.1-.4.3-1.2.6-1.3a7.88289,7.88289,0,0,0,1.7-3.9A13.50328,13.50328,0,0,0,215.1,193.69794Z"/><path class="u" d="M215,193.69794s-3.5,2.5-6.5,1.7-3.8-.5-4.2.5c-.3.9,8.4,5.7,9.9,6.4.1,0,.2,0,.2-.1h0c.1-.4.3-1.2.6-1.3a7.88271,7.88271,0,0,0,1.7-3.9A13.50328,13.50328,0,0,0,215,193.69794Z"/><path class="r" d="M244.1,187.798l-10-1.3s-16.1,7.7-18.1,7.9l.5,3.4h2.9c1.1,0,12.7-2.6,14.4-5a3.4301,3.4301,0,0,1,2.8.3c1.5.8,15.7,5.3,15.7,5.3Z"/><path class="s" d="M244.1,187.798l-10-1.3s-16.1,7.7-18.1,7.9l.5,3.4h2.9c1.1,0,12.7-2.6,14.4-5a3.4301,3.4301,0,0,1,2.8.3c1.5.8,15.7,5.3,15.7,5.3Z"/><polygon class="p" points="226.5 192.398 224.9 194.398 226.5 195.398 228.9 193.598 226.5 192.398"/><path class="v" d="M254.8,190.098s-5.3-4.6-5.7-5.4c-.4-.9-9.1-6.4-9.7-6.6s-2.6-1.1-4.5,2.4-9,12.1-9,12.1,2.2,3.1,2.9,2.9c.8-.2,9-7.1,9.7-10.5,0,0,.6-1.3,1.9.9,1.3,2.2,10,12.9,11.6,12.7,0,0,6.4,1,7.7-1.5C261.1,194.398,254.8,190.098,254.8,190.098Z"/><path class="w" d="M257.9,168.398s-1.9.9-2,4.3c-.2,3.4-3.4,9.2-3.4,9.2l.3,6.8s3.5,3.5,3.9,5.8c.3,2.2,2.8,3.7,2.8,3.7s2.9-1.5,3.4-3.4.8-6.6,1.5-8.4.3-12.9.3-12.9l-2.2-3.9-1.1-1.3-3.1,3.5C258.1,171.69794,256.4,169.398,257.9,168.398Z"/><path class="t" d="M253.4,186.298s-.5-5.3.9-6.5l2.7-7.6s.9-3.6.9-3.9c-.2-.3-3.5,2.8-3.5,2.8l-2.2,7.9.6,8.2Z"/><path class="v" d="M253.3,186.298s-.5-5.3.9-6.5l2.7-7.6a34.23342,34.23342,0,0,0,.9-4c-.2-.3-3.5,2.9-3.5,2.9l-2.2,7.9.6,8.2Z"/><path class="p" d="M254.4,183.898s-7.4-2.4-7.9-2.9c-.5-.6-5.2-4.5-6.8-1.8s6.1,3.4,6.1,3.4l7.9,4.7Z"/><path class="t" d="M226.9,194.398l-2.2-.4s-3.6,4.6-5.5,4.2c-1.9-.5-3.6,1.5-1.6,2.2,1.8.6,9.5,1.4,11,1.5.1,0,.2-.1.3-.2h0a3.53315,3.53315,0,0,1,.4-1.7c.4-.9,0-3-.1-3.9a2.9473,2.9473,0,0,0-.5-1.3Z"/><path class="u" d="M226.8,194.598l-2.2-.4s-3.6,4.6-5.5,4.2c-1.9-.5-3.6,1.5-1.6,2.2,1.8.6,9.5,1.4,11,1.5.1,0,.2-.1.3-.2h0a5.07911,5.07911,0,0,1,.3-1.7c.4-.9,0-3-.1-3.9a2.94742,2.94742,0,0,0-.5-1.3Z"/><circle class="t" cx="257.70001" cy="163.29803" r="4.69998"/><circle class="p" cx="257.20001" cy="163.29803" r="4.69998"/><path class="v" d="M262,167.998s5.6,1.9,5.6,5.9-3.1,10.3-3.2,15.5c-.2,5.2-8.2,4.5-8.2,4.5s-1.1-17.4,0-18.8C257.2,173.798,262.5,168.498,262,167.998Z"/><path class="t" d="M260.9,176.19794s-2.1,9.2-6.9,7.6c0,0-2.6,3.7-.8,5.3,0,0,4.3,1,7.1-1.8s4.9-3.9,5.3-7.3c.5-3.4.8-8.2-.8-7.7C263.4,172.798,260.9,176.19794,260.9,176.19794Z"/><path class="v" d="M261,176.098s-2.1,9.2-6.9,7.6c0,0-2.6,3.7-.8,5.3,0,0,4.3,1,7.1-1.8s4.9-3.9,5.3-7.3c.5-3.4.8-8.2-.8-7.7C263.6,172.69794,261,176.098,261,176.098Z"/><path class="w" d="M229.2,199.69794h0q-.15.45007-.3.9c0-.1.1-.2.1-.4A.55045.55045,0,0,0,229.2,199.69794Z"/><path class="w" d="M217.7,200.098c-.6-.2-.9-.6-.9-.9-.3.5-.1,1,.8,1.3,1.8.6,9.5,1.4,11,1.5.1,0,.2-.1.3-.2h0a.21506.21506,0,0,0-.2-.2C227,201.398,219.4,200.69794,217.7,200.098Z"/><path class="w" d="M204.5,195.69794c0-.1.1-.2.2-.3a2.09161,2.09161,0,0,0-.4.6c-.3.9,8.4,5.7,9.9,6.4.1,0,.2,0,.2-.1h0c0-.1,0-.2-.1-.2C212.8,201.298,204.1,196.498,204.5,195.69794Z"/><path class="w" d="M215.1,200.69794c-.1,0-.2.1-.2.3h0c.1,0,.2-.2.2-.3Z"/><path class="t" d="M256.6,167.498c-.4.9-.5,2-.9,2.9a6.52059,6.52059,0,0,1-4,4.1c1.5.6,3.3-.1,4.6-1.4a13.07573,13.07573,0,0,0,2.6-4.6c1.7,1.1,1.5,3.8,2.1,5.9a6.93062,6.93062,0,0,0,3.5,4.2,5.823,5.823,0,0,0,5.3-.1c-1.6-1.9-3.8-4.6-3.6-7.1.2-2.1-1.2-3.7-1.1-5.8.2-2.9-.9-4.5-3.1-6.4-1.2-1.1.8-2.7-.9-2.2-.7.2-1.3-.5-1.9-.3-1.2.5-2.6.3-3.8.6C248.8,158.898,257.2,166.098,256.6,167.498Z"/><path class="x" d="M256.7,167.298c-.4.9-.5,2-.9,2.9a6.52058,6.52058,0,0,1-4,4.1c1.5.6,3.3-.1,4.6-1.4a13.77768,13.77768,0,0,0,2.6-4.6c1.7,1.1,1.5,3.8,2.1,5.9a6.93059,6.93059,0,0,0,3.5,4.2,5.823,5.823,0,0,0,5.3-.1c-1.6-1.9-3.7-4.2-3.4-6.7.2-2.1-.1-4.3,0-6.4a9.88663,9.88663,0,0,0-3.4-7.7,4.73852,4.73852,0,0,0-3.8-1c-1.2.5-2.6.3-3.8.6C249,158.798,257.3,165.998,256.7,167.298Z"/></g><circle class="y" cx="178.60001" cy="102.79803" r="20.40001"/><path class="x" d="M188.35251,105.20261c-1.72132,1.11675-2.95772,1.94213-3.27246,2.79123a1.40834,1.40834,0,0,1-1.67294.92268l-.097-.02419a.87463.87463,0,0,1-.72814-.79989,1.01454,1.01454,0,0,1-.04916-1.04287,9.83088,9.83088,0,0,1,4.48415-4.34421c3.17594-1.99082,3.46653-2.74285,3.68427-3.61614a4.548,4.548,0,0,0-.29292-2.95873,4.7055,4.7055,0,0,0-2.86326-2.15678,4.378,4.378,0,0,0-5.26091,3.32607,1.64863,1.64863,0,0,1-2.0124,1.04417c-1.52826-.48407-1.45652-2.01211-1.23878-2.8854.99187-3.97818,5.42949-5.24222,9.31067-4.27454a7.12727,7.12727,0,0,1,4.56194,3.61092,6.78305,6.78305,0,0,1,.5611,5.18993C192.64313,101.63462,191.868,103.09037,188.35251,105.20261Z"/><path class="x" d="M182.02791,114.035a1.7,1.7,0,1,1,2.06079-1.23825A1.62755,1.62755,0,0,1,182.02791,114.035Z"/><path class="x" d="M172.61964,108.68308c-.66311,1.56211-1.49572,2.43777-1.196,3.17956a1.19288,1.19288,0,0,1-.70056,1.46941l-.09272.03746a1.3822,1.3822,0,0,1-1.02177-.12645,1.613,1.613,0,0,1-.61531-.7221c-.26594-1.726.52729-3.233,1.28312-4.83256,1.21569-2.86389,1.048-3.01194.87853-3.69838a2.73663,2.73663,0,0,0-1.65858-1.70261,3.73025,3.73025,0,0,0-2.9529-.10114c-1.85437.74921-2.332,2.23639-1.54533,4.18357a1.40216,1.40216,0,0,1-.84855,1.637,1.82247,1.82247,0,0,1-2.23271-1.255,5.92792,5.92792,0,0,1,3.82024-6.82833,6.07107,6.07107,0,0,1,4.92154.16864,5.10933,5.10933,0,0,1,2.759,3.09159C174.05448,104.75994,173.90836,105.46607,172.61964,108.68308Z"/><path class="x" d="M172.29453,116.68766a1.30005,1.30005,0,0,1-.974-2.41077,1.32372,1.32372,0,0,1,1.69235.7184A1.2605,1.2605,0,0,1,172.29453,116.68766Z"/></svg>