<svg xmlns="http://www.w3.org/2000/svg" xmlns:xlink="http://www.w3.org/1999/xlink" viewBox="0 0 390 240"><defs><style>.a,.i,.k,.n,.s,.t{fill:none;}.b{fill:url(#a);}.c{opacity:0.6;fill:url(#b);}.c,.o,.p,.x{isolation:isolate;}.d{fill:url(#c);}.e{fill:#ececec;}.f{fill:#c6c7c6;}.g{fill:#f1f1f1;}.h{fill:#eee;}.i{stroke:#c6c7c6;}.i,.n{stroke-width:2px;}.j{fill:#fff;}.k,.n{stroke:#cccdcc;}.k{stroke-width:2px;}.l{fill:#fe8f00;}.m{fill:#bababa;}.n,.t{stroke-linecap:round;}.n{stroke-dasharray:10;}.p{font-size:50.00592px;font-family:PingFangSC-Medium-GBpc-EUC-H, PingFang SC;letter-spacing:-0.21499em;}.p,.r{fill:#fe8f29;}.q{font-size:24px;letter-spacing:-0.21501em;}.s{stroke:#e5e5e5;}.t{stroke:#fe8f29;}.u{fill:#ffb9b9;}.v{fill:#ffb8b8;}.w{fill:#2f2e41;}.x{opacity:0.1;}.y{fill:#e6e6e6;}.z{fill:#ccc;}</style><linearGradient id="a" x1="-818.80585" y1="394.61545" x2="-818.80585" y2="393.61545" gradientTransform="matrix(303.24997, 0, 0, -117.07785, 248497.84991, 46300.5309)" gradientUnits="userSpaceOnUse"><stop offset="0" stop-color="#f8f8f8" stop-opacity="0.082"/><stop offset="1" stop-color="#7c7c7c" stop-opacity="0.059"/></linearGradient><linearGradient id="b" x1="-819.37792" y1="392.01602" x2="-819.37792" y2="391.01602" gradientTransform="matrix(385, 0, 0, -40.688, 315655.5, 16146.54395)" gradientUnits="userSpaceOnUse"><stop offset="0" stop-color="#f0eeef" stop-opacity="0"/><stop offset="1" stop-color="#d5d5d5"/></linearGradient><linearGradient id="c" x1="-818.80585" y1="395.01308" x2="-818.80585" y2="394.01308" gradientTransform="matrix(303.24997, 0, 0, -164.24921, 248497.84991, 64933.21658)" xlink:href="#a"/></defs><rect class="a" x="-5" y="8.1" width="400" height="250"/><path class="b" d="M189.391,99.88c142.533-3.53,159.691,114.151,156.984,117h-303S46.857,103.41,189.391,99.88Z"/><ellipse class="c" cx="195" cy="216.54007" rx="192.5" ry="20.344"/><path class="d" d="M189.391,52.74c142.533-4.952,159.691,160.144,156.984,164.14h-303S46.857,57.692,189.391,52.74Z"/><path class="e" d="M145.76029,98.87983c-.05164,0-.1037-.00034-.15518-.001l-.01364-.00017-.01364.0002c-.04069.0006-.08181.001-.12264.001h-32.7069c-.04082,0-.08194-.00036-.12263-.001l-.01364-.0002-.01364.00017c-.05148.00065-.10354.001-.15519.001a11.79364,11.79364,0,0,1-8.37464-3.4523,11.73886,11.73886,0,0,1-1.07973-15.424,11.93676,11.93676,0,0,1,6.04945-4.19319l.39794-.11867.19681-.36565a11.89372,11.89372,0,0,1,14.051-5.67209l.79512.25258.391-.737a11.87792,11.87792,0,0,1,18.8177-2.87258,11.6795,11.6795,0,0,1,3.50185,8.25671l.00742.81975.80528.15351A11.80471,11.80471,0,0,1,157.60149,87.098a11.67524,11.67524,0,0,1-3.46656,8.3295A11.79364,11.79364,0,0,1,145.76029,98.87983Z"/><path class="f" d="M145.76029,97.87983a10.8,10.8,0,0,0,7.66918-3.16105,10.682,10.682,0,0,0,3.172-7.62075,10.80367,10.80367,0,0,0-8.78631-10.58874l-1.61057-.307-.01483-1.63951a10.68583,10.68583,0,0,0-3.20435-7.554,10.87793,10.87793,0,0,0-17.23188,2.62955l-.782,1.47393-1.59023-.50516A10.89372,10.89372,0,0,0,110.51357,75.8l-.39364.7313-.79587.23736a10.92947,10.92947,0,0,0-5.53881,3.83962,10.73886,10.73886,0,0,0,.98876,14.11047,10.8,10.8,0,0,0,7.66918,3.16105c.04747,0,.0953-.00032.14262-.00091l.02728-.00034.02728.0004c.0358.00052.072.00085.10792.00085h32.7069c.03593,0,.07213-.00033.10793-.00085l.02728-.0004.02728.00034c.04732.00059.09515.00091.14261.00091m0,2c-.05583,0-.1121-.00037-.16776-.00107-.04556.00067-.09162.00107-.13734.00107h-32.7069c-.04571,0-.09177-.0004-.13733-.00107-.05566.0007-.11193.00107-.16777.00107a12.77663,12.77663,0,0,1-3.69071-25.02773,12.89373,12.89373,0,0,1,15.23434-6.15119,12.85405,12.85405,0,0,1,24.20288,5.84376,12.77817,12.77817,0,0,1-2.42941,25.33516Z"/><path class="e" d="M328.5001,160.87993c-.08565,0-.17194-.0007-.2573-.00193l-.01579-.00022-.01576.00027c-.07024.0012-.141.00188-.21154.00188H280.9999q-.10575,0-.21111-.00187l-.01578-.00027-.01577.00023c-.08533.00122-.1712.00191-.25684.00191a17.50136,17.50136,0,0,1-13.97122-28.04061,17.52732,17.52732,0,0,1,8.93976-6.22546l.39819-.11929.1963-.36639a17.52705,17.52705,0,0,1,20.76344-8.42288l.79747.25459.39092-.74025A17.49628,17.49628,0,0,1,313.4998,107.88a17.50021,17.50021,0,0,1,17.49957,17.3395l.00738.81917.80459.154a17.50176,17.50176,0,0,1-3.31124,34.68723Z"/><path class="f" d="M328.5001,159.87993a16.50189,16.50189,0,0,0,3.12327-32.70506l-1.60918-.308-.01476-1.63833a16.50406,16.50406,0,0,0-25.13578-13.91089,16.575,16.575,0,0,0-5.96412,6.369l-.78183,1.48048-1.595-.50917a16.52707,16.52707,0,0,0-19.57786,7.9425l-.3926.73279-.79636.23857a16.402,16.402,0,0,0-4.704,2.27908,16.57077,16.57077,0,0,0-3.72491,3.59136,16.50084,16.50084,0,0,0,13.17341,26.4377c.0808,0,.16183-.00065.24235-.00181l.03171-.00046.0317.00055q.09666.00167.19374.00172h46.9998c.06485,0,.12994-.00063.1945-.00174l.0314-.00053.0314.00044c.08065.00115.16219.00183.2431.00183m0,2c-.09042,0-.18153-.00074-.27166-.002-.07594.00131-.15247.002-.22874.002H280.9999q-.11437,0-.2283-.002c-.09011.00131-.18077.002-.2712.002a18.50278,18.50278,0,0,1-5.31844-36.224,18.527,18.527,0,0,1,21.949-8.90325,18.50249,18.50249,0,0,1,34.86836,8.45786,18.50189,18.50189,0,0,1-3.49925,36.6694Z"/><path class="g" d="M141.382,222.65408c-.013-.059-1.3-5.946,1.332-10.835s8.264-7.045,8.321-7.067l.257-.1.061.268c.013.059,1.3,5.946-1.332,10.835s-8.264,7.045-8.321,7.067l-.257.1Zm9.557-17.344c-1.127.485-5.576,2.607-7.8,6.737s-1.555,9.014-1.341,10.221c1.127-.484,5.574-2.6,7.8-6.737s1.556-9.01306,1.342-10.221Z"/><path class="g" d="M148.006,214.043c-4.738,2.85-6.563,8.512-6.563,8.512s5.857,1.04,10.595-1.81,6.563-8.512,6.563-8.512S152.744,211.193,148.006,214.043Z"/><rect class="h" x="120" y="83.85201" width="171" height="105" rx="18"/><rect class="i" x="121" y="84.85201" width="169" height="103" rx="17"/><rect class="j" x="175.00035" y="18.85276" width="80" height="130" rx="14" transform="translate(81.62508 272.18086) rotate(-76)"/><rect class="k" x="176.00035" y="19.85276" width="78" height="128" rx="13" transform="translate(81.62508 272.18086) rotate(-76)"/><ellipse class="j" cx="151.93068" cy="68.12699" rx="17" ry="15.137" transform="translate(49.07199 199.06327) rotate(-76)"/><ellipse class="k" cx="151.93068" cy="68.12699" rx="16" ry="14.137" transform="translate(49.07199 199.06327) rotate(-76)"/><ellipse class="j" cx="284.77491" cy="83.72888" rx="11" ry="9.795" transform="translate(134.63985 339.78891) rotate(-76)"/><ellipse class="k" cx="284.77491" cy="83.72888" rx="10" ry="8.795" transform="translate(134.63985 339.78891) rotate(-76)"/><ellipse class="j" cx="277.03291" cy="114.77789" rx="11" ry="9.795" transform="translate(98.64409 355.81445) rotate(-76)"/><ellipse class="k" cx="277.03291" cy="114.77789" rx="10" ry="8.795" transform="translate(98.64409 355.81445) rotate(-76)"/><path class="j" d="M273,214.85185H138a17.47018,17.47018,0,0,1-12.04263-4.68916A15.34928,15.34928,0,0,1,121,198.91438l.14469-92.34359a22.86265,22.86265,0,0,0,2.6987,4.346,13.74793,13.74793,0,0,0,4.19315,3.595C134.676,118.05,144.27085,118.05,147.42383,118.05H273a17.47027,17.47027,0,0,1,12.04263,4.68913A15.34929,15.34929,0,0,1,290,133.9875v64.92688a15.34925,15.34925,0,0,1-4.95737,11.24831A17.4702,17.4702,0,0,1,273,214.85185Z"/><path class="f" d="M122.13885,110.28932,122,198.91437a14.35915,14.35915,0,0,0,4.64264,10.52A16.47408,16.47408,0,0,0,138,213.85182H273a16.47408,16.47408,0,0,0,11.35736-4.41741A14.35915,14.35915,0,0,0,289,198.91437V133.98748a14.35916,14.35916,0,0,0-4.64264-10.52005A16.47412,16.47412,0,0,0,273,119.05H147.42381c-3.21476,0-12.99769,0-19.85756-3.65571a15.75,15.75,0,0,1-5.4274-5.105m-1.98553-9.23352s2.2412,9.31618,8.35352,12.5735,14.88089,3.42073,18.917,3.42073H273c9.94113,0,18,7.58316,18,16.93745v64.92689c0,9.35429-8.05887,16.93745-18,16.93745H138c-9.94113,0-18-7.58316-18-16.93745Z"/><path class="l" d="M295,176.85244H261.54822a10.54822,10.54822,0,0,1,0-21.09644H295Z"/><path class="m" d="M261.54822,156.756a9.54822,9.54822,0,0,0,0,19.09644H294V156.756H261.54822m0-2H296v23.09644H261.54822a11.54822,11.54822,0,0,1,0-23.09644Z"/><circle class="j" cx="261.5" cy="166.35201" r="4.5"/><line class="n" x1="201.5" y1="41.35201" x2="180.5" y2="117.35201"/><g class="o"><text class="p" transform="translate(200.40042 97.35559) rotate(15.00891)">ジ<tspan class="q" x="39.25488" y="0">ョ</tspan></text></g><ellipse class="r" cx="123" cy="208.35199" rx="21" ry="6.5"/><ellipse class="r" cx="123" cy="215.35199" rx="21" ry="6.5"/><rect class="r" x="102" y="207.85199" width="42" height="8"/><ellipse class="j" cx="123" cy="207.35201" rx="21" ry="6.5"/><ellipse class="s" cx="123" cy="207.35201" rx="20.5" ry="6"/><ellipse class="r" cx="137" cy="198.35199" rx="21" ry="6.5"/><ellipse class="r" cx="137" cy="205.35199" rx="21" ry="6.5"/><rect class="r" x="116" y="197.85199" width="42" height="8"/><ellipse class="j" cx="137" cy="197.35201" rx="21" ry="6.5"/><ellipse class="s" cx="137" cy="197.35201" rx="20.5" ry="6"/><line class="t" x1="149.5" y1="178.85201" x2="146.5" y2="186.85201"/><line class="t" x1="153" y1="185.85201" x2="158" y2="178.85201"/><line class="t" x1="144" y1="187.85201" x2="141" y2="182.85201"/><path class="u" d="M177.579,183.433a1.94,1.94,0,1,1,3.862.255l5.575,7.3a2.7,2.7,0,0,1-.365,2.968l-.437.51-2.006-.4-2.274-2.007.268-2.274-2.809-4.414h0A1.939,1.939,0,0,1,177.579,183.433Z"/><path class="v" d="M216.127,219.124l.91-3.38-12.6-5.118-1.343,4.988Z"/><path class="w" d="M219.174,220.867l2.934-10.9-.138-.037a4.393,4.393,0,0,0-5.384,3.09991l0,.00006h0l-1.792,6.656Z"/><path class="v" d="M198.77,218.583l2.83-2.058-6.593-11.9-4.178,3.038Z"/><path class="w" d="M200.044,221.852l9.127-6.638-.084-.115a4.393,4.393,0,0,0-6.136-.969h0l-5.574,4.054Z"/><path class="w" d="M174.711,201.957l7.123-6.92a3.6,3.6,0,0,1,4.71-.263l13.449,14.941-1.2,1.873-12.842-8.695-8.695,11.37-8.294-4.147Z"/><path class="u" d="M177.784,203.428l5.217-.4,3.778-.916a1.94084,1.94084,0,1,1,.368,2.518h0l-2.274.936-9.765,3.344-1.2-.936Z"/><path class="w" d="M165.212,217.876l2.943,1.873h3.478l16.186-6.02,23.677,4.281.669-5.083-21.67-9.5L171.5,209.714Z"/><circle class="u" cx="171.49901" cy="180.153" r="5.217"/><path class="r" d="M158.001,200.982a29.97236,29.97236,0,0,0,1.47,9.271l.391,1.2,1.873,8.561,2.007.535,1.471-1.873,2.943-2.14,2.14-3.478L172.131,210l.573-.955,2.007-10.033,7.62805-4.276,2.542-.4-.535-1.471-2.274-3.077-2.274-.268-.669-.535-.535.268-2.955,1.132-9.563-4.04-1.4.229-4.816,4.013A29.949,29.949,0,0,0,158.001,200.982Z"/><path class="x" d="M159.461,199.813l5.083,3.344,7.587,6.841.573-.955,1.605-8.026h-.4l-4.147-7.625Z"/><path class="r" d="M169.761,192.594l4.147,7.625,2.408,2.675,2.14.535-5.752,6.287-8.16-7.357-5.083-3.344Z"/><path class="w" d="M175.558,176.274l.565.217a.789.789,0,0,0,.21439-1.095l-.00339-.005-.009-.013,1.045-.049a7.8879,7.8879,0,0,0-11.775-.949c-.048-.164-.566.155-.778.478-.071-.267-.557,1.022-.729,1.933-.08-.3-.386.186-.118.656-.17-.025-.247.41-.115.652-.186-.087-.155.432.047.778-.265-.024.023,5.439,4,5.041.277-1.273.2-1.194.525-2.831.152-.161.318-.308.484-.455l.9-.793c1.044-.922,1.994-2.059,3.385-2.4.956-.237,1.56-.29,1.039-1.367.471.2.91.489,1.385.671C175.615,176.593,175.549,176.425,175.558,176.274Z"/><circle class="u" cx="168.89001" cy="180.75499" r="0.936"/><rect class="y" x="190.67662" y="166.99609" width="4.3" height="4.3" transform="translate(-62.4427 194.24744) rotate(-46.873)"/><path class="z" d="M189.562,165.667l3.811,3.57,3.57-3.811-3.811-3.57Zm3.8,3.249-3.48-3.259,3.259-3.48,3.48,3.259Z"/></svg>