<svg xmlns="http://www.w3.org/2000/svg" xmlns:xlink="http://www.w3.org/1999/xlink" viewBox="0 0 390 240"><defs><style>.a,.j{fill:none;}.b{clip-path:url(#a);}.c{fill:url(#b);}.d,.n{opacity:0.6;}.al,.am,.an,.ao,.ap,.d,.l,.n,.s{isolation:isolate;}.d{fill:url(#c);}.e{fill:url(#d);}.f,.l{fill:#ececec;}.g{fill:#c6c7c6;}.h{fill:#e97c2c;}.i{fill:#b9b9b9;}.j{stroke:#e97c2c;stroke-linecap:round;stroke-width:1.6px;}.k{fill:#fff;}.l{opacity:0.3;}.m{fill:#f1f1f1;}.n{fill:url(#e);}.o{fill:#b3b8b9;}.p{fill:#cfd3d4;}.q{fill:#e9ebeb;}.r{fill:#edf1ee;}.s{opacity:0.8;fill:url(#f);}.t{opacity:0.9;}.u{fill:url(#g);}.v{fill:url(#h);}.w{fill:url(#i);}.x{fill:url(#j);}.y{fill:url(#k);}.z{fill:url(#l);}.aa{fill:url(#m);}.ab{fill:url(#n);}.ac{fill:url(#o);}.ad{fill:url(#p);}.ae{fill:url(#q);}.af{fill:url(#r);}.ag{fill:#ffb7b7;}.ah{fill:#707774;}.ai{fill:#1f1f1f;}.aj{fill:#ffb8b8;}.ak{fill:url(#s);}.am,.ao{font-size:10.987px;letter-spacing:-0.09097em;}.am,.an{fill:#8a56c5;}.am,.an,.ao,.ap{font-family:RoundedMplus1c-ExtraBold, "Rounded Mplus 1c";font-weight:800;}.an,.ap{font-size:7.7919px;letter-spacing:-0.12803em;}.ao,.ap{fill:#8a4cff;}.aq{fill:#ccc;}.ar{fill:#ffb9b9;}.as{fill:#2f2e41;}.at{fill:#a0616a;}.au{fill:#40d79e;}.av{fill:#ffd740;}.aw{fill:#263238;}</style><clipPath id="a"><rect class="a" x="6.2" y="1.7" width="377.60002" height="236"/></clipPath><linearGradient id="b" x1="-1463.0951" y1="-961.20782" x2="-1463.0951" y2="-960.26339" gradientTransform="translate(443878.60938 112643.72513) scale(303.25 117.0779)" gradientUnits="userSpaceOnUse"><stop offset="0" stop-color="#f8f8f8" stop-opacity="0.082"/><stop offset="1" stop-color="#7c7c7c" stop-opacity="0.059"/></linearGradient><linearGradient id="c" x1="-1464.24286" y1="-956.47394" x2="-1464.24286" y2="-955.53018" gradientTransform="translate(563928.5 39115.6115) scale(385 40.688)" gradientUnits="userSpaceOnUse"><stop offset="0" stop-color="#f0eeef" stop-opacity="0"/><stop offset="1" stop-color="#d5d5d5"/></linearGradient><linearGradient id="d" x1="-1463.0951" y1="-961.93665" x2="-1463.0951" y2="-960.99232" gradientTransform="translate(443878.60938 158060.32672) scale(303.25 164.24921)" xlink:href="#b"/><linearGradient id="e" x1="-1639.14831" y1="6.10091" x2="-1639.14831" y2="6.1906" gradientTransform="translate(631303.5 -99.48402) scale(385 40.688)" xlink:href="#c"/><linearGradient id="f" x1="136.05" y1="106.8" x2="136.05" y2="22.40001" gradientTransform="matrix(1, 0, 0, -1, 0, 242)" gradientUnits="userSpaceOnUse"><stop offset="0" stop-color="#fffdec"/><stop offset="1" stop-color="#ffc7cc"/></linearGradient><linearGradient id="g" x1="109.9" y1="120.6237" x2="109.9" y2="48.2298" gradientTransform="matrix(1, 0, 0, -1, 2.102, 266.802)" xlink:href="#f"/><linearGradient id="h" x1="107.40637" y1="120.6237" x2="107.40637" y2="48.2298" gradientTransform="matrix(1, 0, 0, -1, 2.102, 266.802)" xlink:href="#f"/><linearGradient id="i" x1="84.6" y1="120.6237" x2="84.6" y2="48.2298" gradientTransform="matrix(1, 0, 0, -1, 2.102, 266.802)" xlink:href="#f"/><linearGradient id="j" x1="83.40763" y1="120.6237" x2="83.40763" y2="48.2298" gradientTransform="matrix(1, 0, 0, -1, 2.102, 266.802)" xlink:href="#f"/><linearGradient id="k" x1="100.55" y1="120.6237" x2="100.55" y2="48.2298" gradientTransform="matrix(1, 0, 0, -1, 2.102, 266.802)" xlink:href="#f"/><linearGradient id="l" x1="101.5" y1="120.6237" x2="101.5" y2="48.2298" gradientTransform="matrix(1, 0, 0, -1, 2.102, 266.802)" xlink:href="#f"/><linearGradient id="m" x1="91.7" y1="120.6237" x2="91.7" y2="48.2298" gradientTransform="matrix(1, 0, 0, -1, 2.102, 266.802)" xlink:href="#f"/><linearGradient id="n" x1="93.39909" y1="120.6237" x2="93.39909" y2="48.2298" gradientTransform="matrix(1, 0, 0, -1, 2.102, 266.802)" xlink:href="#f"/><linearGradient id="o" x1="99.5" y1="120.6237" x2="99.5" y2="48.2298" gradientTransform="matrix(1, 0, 0, -1, 2.102, 266.802)" xlink:href="#f"/><linearGradient id="p" x1="99.69999" y1="120.6237" x2="99.69999" y2="48.2298" gradientTransform="matrix(1, 0, 0, -1, 2.102, 266.802)" xlink:href="#f"/><linearGradient id="q" x1="96.7" y1="120.6237" x2="96.7" y2="48.2298" gradientTransform="matrix(1, 0, 0, -1, 2.102, 266.802)" xlink:href="#f"/><linearGradient id="r" x1="102.95" y1="120.6237" x2="102.95" y2="48.2298" gradientTransform="matrix(1, 0, 0, -1, 2.102, 266.802)" xlink:href="#f"/><linearGradient id="s" x1="151.64999" y1="106.8" x2="151.64999" y2="22.40001" xlink:href="#f"/></defs><g class="b"><rect class="a" x="6.2" y="1.672" width="377.59999" height="236"/><path class="c" d="M189.7,107.6C324.3,104.3,340.5,215.40009,337.9,218.1H51.9S55.1,111.00006,189.7,107.6Z"/><ellipse class="d" cx="195" cy="217.79999" rx="181.70001" ry="19.19995"/><path class="e" d="M189.7,63.1c134.6-4.7,150.8,151.2,148.2,155H51.9S55.1,67.8,189.7,63.1Z"/><path class="f" d="M118.7,106.7H87.3a11.123,11.123,0,0,1-7.9-3.3A10.76579,10.76579,0,0,1,76,95.6a10.87572,10.87572,0,0,1,2.3-6.7,11.48065,11.48065,0,0,1,5.7-4l.4-.1.2-.3a11.28536,11.28536,0,0,1,9.9-5.9,12.70013,12.70013,0,0,1,3.4.5l.8.2.3-.7a11.29465,11.29465,0,0,1,17.8-2.7,11.40362,11.40362,0,0,1,3.2,7.8v.8l.8.1a11.1516,11.1516,0,0,1-2.1,22.1Z"/><path class="g" d="M118.7,105.7a10.18826,10.18826,0,0,0,1.9-20.2l-1.5-.3V83.7a9.99258,9.99258,0,0,0-3-7.1,10.22385,10.22385,0,0,0-7.2-3A10.39622,10.39622,0,0,0,99.8,79l-.7,1.4-1.5-.5a11.15124,11.15124,0,0,0-3.1-.5,10.23961,10.23961,0,0,0-9,5.4l-.5.8-.8.2A10.06034,10.06034,0,0,0,79,89.4a10.43218,10.43218,0,0,0-2,6.2,10.24295,10.24295,0,0,0,10.2,10.2h31.2c.2-.1.2-.1.3-.1m0,1.9H87.2A12.05258,12.05258,0,0,1,83.7,84a12.13379,12.13379,0,0,1,10.7-6.4,11.47564,11.47564,0,0,1,3.7.6,12.13379,12.13379,0,0,1,10.7-6.4,11.99312,11.99312,0,0,1,12.1,12,12.12465,12.12465,0,0,1,9.8,11.9A11.88647,11.88647,0,0,1,118.7,107.6Z"/><path class="h" d="M239.8,52.6a.9314.9314,0,0,1,1.2-.6.90157.90157,0,0,1,.6.6l2.2,7.2a.90158.90158,0,0,0,.6.6l7.2,2.2a.93135.93135,0,0,1,.6,1.2.90134.90134,0,0,1-.6.6l-7.2,2.2a.90167.90167,0,0,0-.6.6l-2.2,7.2a.93137.93137,0,0,1-1.2.6.90167.90167,0,0,1-.6-.6l-2.2-7.2a.90139.90139,0,0,0-.6-.6l-7.2-2.2A.93136.93136,0,0,1,229.2,63.2a.90135.90135,0,0,1,.6-.6l7.2-2.2a.90157.90157,0,0,0,.6-.6Z"/><path class="f" d="M321,165.2H275.8a16.72291,16.72291,0,0,1-11.8-4.8,16.48948,16.48948,0,0,1-4.8-11.7,17.11345,17.11345,0,0,1,3.3-10,16.48534,16.48534,0,0,1,8.4-5.9l.4-.1.2-.3a16.51617,16.51617,0,0,1,14.6-8.7,16.86937,16.86937,0,0,1,5,.8l.8.2.4-.7a16.74234,16.74234,0,0,1,6-6.4,15.92628,15.92628,0,0,1,8.6-2.4,16.25817,16.25817,0,0,1,11.6,4.8,16.78,16.78,0,0,1,4.9,11.6v.8l.8.1a16.54791,16.54791,0,0,1,8.6,27.9A16.89819,16.89819,0,0,1,321,165.2Z"/><path class="g" d="M321,164.3a15.10739,15.10739,0,0,0,11-4.6,15.54316,15.54316,0,0,0-8-26.3l-1.5-.3v-1.5a15.53552,15.53552,0,0,0-15.6-15.4,15.86586,15.86586,0,0,0-8.2,2.3,15.38371,15.38371,0,0,0-5.6,6l-.7,1.4-1.5-.5a14.8744,14.8744,0,0,0-4.7-.7,15.54885,15.54885,0,0,0-13.7,8.2l-.5.6-.8.2a13.98346,13.98346,0,0,0-4.4,2.2,16.09452,16.09452,0,0,0-3.5,3.4,15.60638,15.60638,0,0,0,1.5,20.4,15.6872,15.6872,0,0,0,11,4.6H321m0,1.9H275.7a17.51917,17.51917,0,0,1-17.5-17.5A17.34068,17.34068,0,0,1,270.6,132a17.32687,17.32687,0,0,1,15.4-9.2,18.3603,18.3603,0,0,1,5.3.8,17.74393,17.74393,0,0,1,15.6-9.4,17.47741,17.47741,0,0,1,17.5,17.3,17.41939,17.41939,0,0,1,14.2,17.2A17.67009,17.67009,0,0,1,321,166.2Z"/><path class="h" d="M74.5,149.4a.85262.85262,0,0,1,1.3,0,1.13546,1.13546,0,0,1,.3.8l-.5,3.2a1.13566,1.13566,0,0,0,.3.8l2.4,2.2a.8527.8527,0,0,1,0,1.3,1.13574,1.13574,0,0,1-.8.3l-3.2-.5a1.13523,1.13523,0,0,0-.8.3l-2.2,2.4a.85261.85261,0,0,1-1.3,0,1.13544,1.13544,0,0,1-.3-.8l.5-3.2a1.13566,1.13566,0,0,0-.3-.8l-2.4-2.2a.85271.85271,0,0,1,0-1.3,1.13572,1.13572,0,0,1,.8-.3l3.2.5a1.13521,1.13521,0,0,0,.8-.3Z"/><path class="h" d="M216.1,20.4l1.4,4.7,4.7,1.4-4.7,1.4-1.4,4.7-1.4-4.7-4.7-1.4,4.7-1.4Z"/><path class="h" d="M70.9,124.4l-.5,3,2.2,2.1-3-.5-2.1,2.2.5-3-2.2-2.1,3,.5Z"/><path class="h" d="M245.4,26.6l1.4,4.7,4.7,1.4-4.7,1.4-1.4,4.7-1.4-4.7-4.7-1.4,4.7-1.4Z"/><path class="h" d="M85.3,135.7l-.5,3,2.2,2.1-3-.5-2.1,2.2.5-3-2.2-2.1,3,.5Z"/><path class="i" d="M289.2,32.767a13.7,13.7,0,1,1,13.7-13.7,13.65709,13.65709,0,0,1-13.7,13.7Zm0-25.6a11.9,11.9,0,1,0,11.9,11.9h0a11.86458,11.86458,0,0,0-11.9-11.9Zm12,24.7a12.13643,12.13643,0,0,1-5.2-1.6,42.96879,42.96879,0,0,1-10.5-8c-6.5-6.5-11.7-15.1-8.7-18.2,1.7-1.7,5.2-1,9.8,1.9l-.9,1.5c-4.1-2.6-6.8-2.9-7.6-2.1-1.5,1.5,1.1,8.2,8.7,15.7a40.34844,40.34844,0,0,0,10.1,7.7c2.7,1.4,4.9,1.8,5.7,1s.7-2.9-1.7-6.9l1.5-.9c2.5,4.2,3,7.4,1.4,9a4.31708,4.31708,0,0,1-2.6.9Z"/><path class="j" d="M288.8,16.167h5.8"/><line class="j" x1="291.79999" y1="13.36701" x2="291.79999" y2="19.06702"/><path class="k" d="M217.895,183.814a91.55283,91.55283,0,0,1-18.8-1.9,95.85722,95.85722,0,0,1-17.5-5.4,89.7261,89.7261,0,0,1-15.8-8.6,93.92437,93.92437,0,0,1-13.8-11.4,100.70864,100.70864,0,0,1-11.4-13.8,89.72671,89.72671,0,0,1-8.6-15.8,88.64756,88.64756,0,0,1-5.4-17.5,90.85445,90.85445,0,0,1-1.9-18.8,91.97619,91.97619,0,0,1,4.5-28.6,94.44077,94.44077,0,0,1,12.5-25,95.40594,95.40594,0,0,1,19.1-20,91.76562,91.76562,0,0,1,22.5-12.9,96.628,96.628,0,0,0-1.9,45.9,91.7254,91.7254,0,0,0,5.5,17.8,89.79362,89.79362,0,0,0,8.8,16.1,97.71233,97.71233,0,0,0,11.6,14.1,92.57662,92.57662,0,0,0,14.1,11.6,100.64684,100.64684,0,0,0,16.1,8.8,91.72621,91.72621,0,0,0,17.8,5.5,94.72212,94.72212,0,0,0,19.2,1.9,94.12142,94.12142,0,0,0,31.6-5.4,92.9615,92.9615,0,0,1-12.4,24.3,92.94648,92.94648,0,0,1-46,34.1A90.93371,90.93371,0,0,1,217.895,183.814Z"/><path class="g" d="M217.895,182.814a92.08794,92.08794,0,0,0,75.1-38.6,94.31523,94.31523,0,0,0,11.7-22.2,95.14666,95.14666,0,0,1-30,4.8,95.77574,95.77574,0,0,1-19.3-2,93.90276,93.90276,0,0,1-18-5.6,91.98835,91.98835,0,0,1-16.3-8.9,95.75052,95.75052,0,0,1-25.9-25.9,98.8827,98.8827,0,0,1-8.9-16.3,96.028,96.028,0,0,1-4.3-62.4,92.41056,92.41056,0,0,0-51.8,56.6,93.4749,93.4749,0,0,0-4.4,28.3,91.85657,91.85657,0,0,0,7.3,35.9,95.28963,95.28963,0,0,0,8.5,15.7,92.91965,92.91965,0,0,0,25,25,91.41286,91.41286,0,0,0,15.7,8.5,88.889,88.889,0,0,0,17.3,5.4,99.63855,99.63855,0,0,0,18.3,1.7m0,1.9a93.48225,93.48225,0,0,1-36.7-7.4,95.10893,95.10893,0,0,1-16-8.7,90.37528,90.37528,0,0,1-13.9-11.5,93.98859,93.98859,0,0,1-20.2-29.9,98.16477,98.16477,0,0,1-5.5-17.7,92.778,92.778,0,0,1-1.9-19,93.86323,93.86323,0,0,1,4.5-28.9,96.55417,96.55417,0,0,1,12.6-25.3,92.54014,92.54014,0,0,1,19.3-20.2,94.35675,94.35675,0,0,1,24.6-13.7,93.38213,93.38213,0,0,0-4.3,28.3,93.4825,93.4825,0,0,0,7.4,36.7,95.11019,95.11019,0,0,0,8.7,16,90.37528,90.37528,0,0,0,11.5,13.9,93.98853,93.98853,0,0,0,29.9,20.2,98.16452,98.16452,0,0,0,17.7,5.5,92.77741,92.77741,0,0,0,19,1.9,93.24926,93.24926,0,0,0,33.1-6,94.68734,94.68734,0,0,1-13.2,26.4,94.39016,94.39016,0,0,1-46.5,34.5A92.63223,92.63223,0,0,1,217.895,184.714Z"/><path class="l" d="M215.9,180.4a89.04261,89.04261,0,0,1-18.4-2.8,92.98119,92.98119,0,0,1-32-15,88.45772,88.45772,0,0,1-13-11.5,98.60287,98.60287,0,0,1-10.5-13.6,88.59356,88.59356,0,0,1-7.7-15.4,85.56656,85.56656,0,0,1,7.6-75.9,85.53778,85.53778,0,0,0-2.1,65.7,82.06311,82.06311,0,0,0,7.7,15.4,92.94019,92.94019,0,0,0,10.5,13.6,94.66881,94.66881,0,0,0,13,11.5,92.98119,92.98119,0,0,0,32,15,96.27861,96.27861,0,0,0,43.7.7,94.45552,94.45552,0,0,0,23-8.3,91.26524,91.26524,0,0,0,34.8-31.9,86.219,86.219,0,0,1-14.6,22.2,91.09089,91.09089,0,0,1-20.6,17,92.15752,92.15752,0,0,1-25.1,10.5A93.3104,93.3104,0,0,1,215.9,180.4Z"/><path class="m" d="M144.4,223.50006c0-.1-1.2-5.6,1.3-10.2s7.8-6.7,7.9-6.7l.2-.1.1.3c0,.1,1.2,5.6-1.3,10.2s-7.8,6.7-7.9,6.7l-.2.1Zm9-16.3c-1.1.5-5.3,2.5-7.4,6.4a15.89726,15.89726,0,0,0-1.3,9.6c1.1-.5,5.3-2.5,7.4-6.4a15.89726,15.89726,0,0,0,1.3-9.6Z"/><path class="m" d="M150.6,215.4c-4.5,2.7-6.2,8-6.2,8s5.5,1,10-1.7,6.2-8,6.2-8S155.1,212.7,150.6,215.4Z"/></g><ellipse class="n" cx="231.39999" cy="150.60001" rx="50.39999" ry="1.8"/><path class="o" d="M184,134H170.5a8.7078,8.7078,0,0,0-6.2,2.6L99.7,201.2a6.26736,6.26736,0,0,1-4.5,1.8H88a8.9,8.9,0,1,0,0,17.8h17.1l69-69h9.8a8.9197,8.9197,0,0,0,8.9-8.9A8.77145,8.77145,0,0,0,184,134Zm0,16.6H173.7l-69,69H88.1a7.64011,7.64011,0,0,1-7.7-7.7h0a7.64011,7.64011,0,0,1,7.7-7.7h7.2a7.49258,7.49258,0,0,0,5.3-2.2l64.6-64.6a7.49256,7.49256,0,0,1,5.3-2.2H184a7.6401,7.6401,0,0,1,7.7,7.7h0A7.70321,7.70321,0,0,1,184,150.6Z"/><polygon class="p" points="182.6 147.8 174 147.8 105 216.8 89.5 216.8 89.5 219.6 108.4 219.6 177.4 150.6 182.6 150.6 182.6 147.8"/><polygon class="o" points="184.1 147.8 175.5 147.8 106.5 216.8 91 216.8 91 219.6 109.9 219.6 178.9 150.6 184.1 150.6 184.1 147.8"/><rect class="q" x="172" y="151.60001" width="15.2" height="3.60001"/><rect class="r" x="168.39999" y="155.2" width="15.2" height="3.60001"/><rect class="q" x="164.8" y="158.8" width="15.2" height="3.60001"/><rect class="r" x="161.2" y="162.39999" width="15.2" height="3.60001"/><rect class="q" x="157.60001" y="166" width="15.2" height="3.60001"/><rect class="r" x="154" y="169.60001" width="15.2" height="3.60001"/><rect class="q" x="150.39999" y="173.2" width="15.2" height="3.60001"/><rect class="r" x="146.8" y="176.8" width="15.2" height="3.60001"/><rect class="q" x="143.2" y="180.39999" width="15.2" height="3.60001"/><rect class="r" x="139.60001" y="184" width="15.2" height="3.60001"/><rect class="q" x="136" y="187.60001" width="15.2" height="3.60001"/><rect class="r" x="132.39999" y="191.2" width="15.2" height="3.60001"/><rect class="q" x="128.8" y="194.8" width="15.2" height="3.60001"/><rect class="r" x="125.2" y="198.39999" width="15.2" height="3.60001"/><rect class="q" x="121.6" y="202" width="15.2" height="3.60001"/><rect class="r" x="118" y="205.60001" width="15.2" height="3.60001"/><rect class="q" x="114.4" y="209.2" width="15.2" height="3.60001"/><rect class="r" x="110.8" y="212.8" width="15.2" height="3.60001"/><polygon class="q" points="120.4 220 107.2 220 107.2 216.4 122.4 216.4 120.4 220"/><path class="s" d="M165.2,137.4,100.6,202a7.49259,7.49259,0,0,1-5.3,2.2H88.1a7.6401,7.6401,0,0,0-7.7,7.7h0a7.6401,7.6401,0,0,0,7.7,7.7h16.6l69-69H184a7.6401,7.6401,0,0,0,7.7-7.7h0a7.6401,7.6401,0,0,0-7.7-7.7H170.5A7.49259,7.49259,0,0,0,165.2,137.4Z"/><g class="t"><path class="u" d="M107.002,186.702l3.2,5.1,6.8-4.3-3.2-5.1Z"/><path class="v" d="M111.702,184.102a1.24431,1.24431,0,0,0-1.1-1.4h-.2l-1.3-2.7-1.8.4,1.9,3.7a1.24433,1.24433,0,0,0,1.4,1.1,1.26921,1.26921,0,0,0,1.1-1.1Z"/><path class="w" d="M84.102,214.802l1.5.8,3.7-5.4-2.2-1.1Z"/><path class="x" d="M83.902,214.202l3,1.5h0a2.12012,2.12012,0,0,1,.9,2.8h0v.1l-4.8-2.5Z"/><path class="y" d="M101.402,216.902h1.7l.8-6.5h-2.5Z"/><path class="z" d="M100.902,216.402h3.3a2.0506,2.0506,0,0,1,2.1,2.1v.1h-5.4Z"/><path class="aa" d="M93.502,164.002s-1.1-.9-1.1,1.2l-.2,7,2,6.6,1.2-2.1-.5-4.6Z"/><path class="ab" d="M105.602,183.102s1.3,6.4-.3,11.6l-.9,20.1-3.4-.3-1.2-14.9-1.1-7.4-2.4,6.8-7.8,14.3-3.6-2.8s4-10.8,6.9-13.1l1.5-16.7Z"/><circle class="ac" cx="101.602" cy="151.702" r="3.8"/><path class="ad" d="M101.302,152.502c.5.1.8-.4,1-.8a2.9246,2.9246,0,0,1,.7-1.2c.5-.3,1.2.1,1.9,0a1.62121,1.62121,0,0,0,1.2-1.6,5.374,5.374,0,0,0-.5-2.1l-.1.8a1.51316,1.51316,0,0,0-.7-1.4l.1,1.2a1.34088,1.34088,0,0,0-1.5-1.1h0v.7a9.66249,9.66249,0,0,0-2.4-.1,3.56357,3.56357,0,0,0-3.5,3.6,1.26836,1.26836,0,0,0,.1.6,14.24939,14.24939,0,0,0,1.1,3.5c.1.3.3.6.6.6a.63377.63377,0,0,0,.6-.5,1.09543,1.09543,0,0,0,0-.8,4.8686,4.8686,0,0,1-.1-1.2,1.22037,1.22037,0,0,1,.8-.9.57341.57341,0,0,1,.6.8Z"/><path class="ae" d="M97.902,156.902l.8-1.1a24.082,24.082,0,0,1,3.3,1.5l.2,1,4.2,25.6-7.6-.3h-2.1l-.7-1.5-.8,1.5h-2l-2-1.2,2-6.2.7-5.6-1-5.3a6.71705,6.71705,0,0,1,3.6-7.5Z"/><path class="af" d="M99.402,160.002s3-3.8,4.8.4l.6,4.4s2.2,5.5,2.2,7.8c0,0,1.5,2.9,1.5,4.4l2.2,5-2.2,1.4-6.2-9.5Z"/><path class="k" d="M107.002,186.702l3.2,5.1,6.8-4.3-3.2-5.1Z"/><path class="ag" d="M111.702,184.102a1.24431,1.24431,0,0,0-1.1-1.4h-.2l-1.3-2.7-1.8.4,1.9,3.7a1.24433,1.24433,0,0,0,1.4,1.1,1.26921,1.26921,0,0,0,1.1-1.1Z"/><path class="ag" d="M84.102,214.802l1.5.8,3.7-5.4-2.2-1.1Z"/><path class="ah" d="M83.902,214.202l3,1.5h0a2.12012,2.12012,0,0,1,.9,2.8h0v.1l-4.8-2.5Z"/><path class="ag" d="M101.402,216.902h1.7l.8-6.5h-2.5Z"/><path class="ah" d="M100.902,216.402h3.3a2.0506,2.0506,0,0,1,2.1,2.1v.1h-5.4Z"/><path class="h" d="M93.502,164.002s-1.1-.9-1.1,1.2l-.2,7,2,6.6,1.2-2.1-.5-4.6Z"/><path class="ai" d="M105.602,183.102s1.3,6.4-.3,11.6l-.9,20.1-3.4-.3-1.2-14.9-1.1-7.4-2.4,6.8-7.8,14.3-3.6-2.8s4-10.8,6.9-13.1l1.5-16.7Z"/><circle class="aj" cx="101.602" cy="151.702" r="3.8"/><path class="ah" d="M101.302,152.502c.5.1.8-.4,1-.8a2.9246,2.9246,0,0,1,.7-1.2c.5-.3,1.2.1,1.9,0a1.62121,1.62121,0,0,0,1.2-1.6,5.374,5.374,0,0,0-.5-2.1l-.1.8a1.51316,1.51316,0,0,0-.7-1.4l.1,1.2a1.34088,1.34088,0,0,0-1.5-1.1h0v.7a9.66249,9.66249,0,0,0-2.4-.1,3.56357,3.56357,0,0,0-3.5,3.6,1.26836,1.26836,0,0,0,.1.6,14.24939,14.24939,0,0,0,1.1,3.5c.1.3.3.6.6.6a.63377.63377,0,0,0,.6-.5,1.09543,1.09543,0,0,0,0-.8,4.8686,4.8686,0,0,1-.1-1.2,1.22037,1.22037,0,0,1,.8-.9.57341.57341,0,0,1,.6.8Z"/><path class="h" d="M97.902,156.902l.8-1.1a24.082,24.082,0,0,1,3.3,1.5l.2,1,4.2,25.6-7.6-.3h-2.1l-.7-1.5-.8,1.5h-2l-2-1.2,2-6.2.7-5.6-1-5.3a6.71705,6.71705,0,0,1,3.6-7.5Z"/><path class="h" d="M99.402,160.002s3-3.8,4.8.4l.6,4.4s2.2,5.5,2.2,7.8c0,0,1.5,2.9,1.5,4.4l2.2,5-2.2,1.4-6.2-9.5Z"/></g><path class="ak" d="M180.8,137.4,116.2,202a7.49261,7.49261,0,0,1-5.3,2.2h-7.2a7.6401,7.6401,0,0,0-7.7,7.7h0a7.6401,7.6401,0,0,0,7.7,7.7h16.6l69-69h10.3a7.6401,7.6401,0,0,0,7.7-7.7h0a7.6401,7.6401,0,0,0-7.7-7.7H186.1A7.49259,7.49259,0,0,0,180.8,137.4Z"/><path class="o" d="M199.6,134H186.1a8.70778,8.70778,0,0,0-6.2,2.6l-64.6,64.6a6.26738,6.26738,0,0,1-4.5,1.8h-7.2a8.9,8.9,0,1,0,0,17.8h17.1l69-69h9.8a8.9197,8.9197,0,0,0,8.9-8.9A8.70961,8.70961,0,0,0,199.6,134Zm0,16.6H189.3l-69,69H103.7a7.6401,7.6401,0,0,1-7.7-7.7h0a7.64011,7.64011,0,0,1,7.7-7.7h7.2a7.49258,7.49258,0,0,0,5.3-2.2l64.6-64.6a7.4926,7.4926,0,0,1,5.3-2.2h13.5a7.64009,7.64009,0,0,1,7.7,7.7h0A7.70321,7.70321,0,0,1,199.6,150.6Z"/><polygon class="p" points="198.3 147.8 189.6 147.8 120.6 216.8 105.1 216.8 105.1 219.6 124 219.6 193 150.6 198.3 150.6 198.3 147.8"/><polygon class="o" points="199.8 147.8 191.1 147.8 122.1 216.8 106.6 216.8 106.6 219.6 125.5 219.6 194.5 150.6 199.8 150.6 199.8 147.8"/><g class="al"><text class="am" transform="translate(138.3668 195.04203) rotate(-44.75691)">ジ</text><text class="an" transform="translate(145.2147 188.88188) rotate(-44.75691)">ョ</text><text class="am" transform="translate(149.58653 183.91752) rotate(-44.75691)">イラー</text></g><g class="al"><text class="ao" transform="translate(138.3668 195.04203) rotate(-44.75691)">ジ</text><text class="ap" transform="translate(145.2147 188.88188) rotate(-44.75691)">ョ</text><text class="ao" transform="translate(149.58653 183.91752) rotate(-44.75691)">イラー</text></g><path class="aq" d="M266.4,133.3h-8.9a.43016.43016,0,0,1-.4.4h-8.7l-.3.3a2.10609,2.10609,0,0,0-.5,1.3v.3a2.00587,2.00587,0,0,0,2,2h16.8a2.00587,2.00587,0,0,0,2-2v-.3A2.00587,2.00587,0,0,0,266.4,133.3Z"/><rect class="aq" x="257" y="137.5" width="2.10001" height="14.60001"/><path class="aq" d="M258,150c-3.9,0-7,1.8-7,2s3.1.1,7,.1,7,.1,7-.1S261.8,150,258,150Z"/><path class="ar" d="M247.5,142.6h-2.9l.9,7.6h2Z"/><path class="as" d="M248,152.1h-6.3V152a2.47572,2.47572,0,0,1,2.5-2.5h3.9v2.6Z"/><path class="ar" d="M259.6,140l2.4,1.7-5.2,5.6-1.6-1.2Z"/><path class="as" d="M255.1,145.4l3.1,2.3h0a2.5298,2.5298,0,0,1,.6,3.5v.1l-5.1-3.7Z"/><path class="aq" d="M251.9,119.2l1.5,6.2.7,4.1h4.6l-1.5-12.9a3.76157,3.76157,0,0,0-4.3,0Z"/><path class="as" d="M248.1,148.6h-4.3v-.1c0-.1.3-12.4.5-13.9a3.14974,3.14974,0,0,1,1.4-2.3l4-2.4h0l9.8-1.4,3,.9,2.1,3a15.389,15.389,0,0,1,.7,4.2c0,2.1-6.4,9.4-6.7,9.7l-.1.1-2.2-2.9,4.2-6.5-4-3.2-8.3,2.7Z"/><path class="h" d="M253.1,133.6c-1.7,0-4.7-3.1-4.8-3.2l-.1-.1,4-3.5v-1.3l-.7-1-2.3-6.3h0c.7-1,3.2-1.5,3.5-1.6l.9-.3s1.7,11.3,2.8,11.4v-6.4l.1-5,1.3.2c2.1.3,4.5,2.4,4.6,2.5h0l-1.2,6.4a7.39312,7.39312,0,0,0,2.9,3.4c2.4,1.7.6,4.6.5,4.6l-.1.2v-.2a2.36517,2.36517,0,0,0-1.1-1.3c-1.2.6-5.6-1.7-6.2-2-.3.4-2.2,2.9-3.6,3.6C253.4,133.5,253.3,133.6,253.1,133.6Z"/><circle class="ar" cx="255.1" cy="111" r="3.8" transform="translate(104.67077 345.02576) rotate(-80.78252)"/><path class="at" d="M256.1,134.6a1.43477,1.43477,0,0,1-1,1.6,1.55348,1.55348,0,0,1-2-.9l-3.2-3.7,1.9-.9,2.2,2.6a.36736.36736,0,0,0,.3-.1,1.752,1.752,0,0,1,1.8,1.4Z"/><path class="h" d="M251.8,135.1h0c-.2-.2-3.3-3.7-3.7-4.4a6.87364,6.87364,0,0,1-.5-2.4c0-.4.9-9.1,1.2-10a.82148.82148,0,0,1,.5-.5,1.67238,1.67238,0,0,1,1.2.1h0l1.4,5.2-.9,4.6,3.5,4.7Z"/><path class="as" d="M251.7,109.9a4.9586,4.9586,0,0,1-.8-2l1.5-1.5c1.3-.9,3.1-1.3,4.3.1,1.4-.3,2.3,1,3.1,2,1.3,1.4.6,2.3-.4,3.4-.1.3.1.7-.1,1-.6.3-1.5.5-1.3,1.4a5.79924,5.79924,0,0,1-1-3.6c-1.8.6-4,.9-5.2-.7"/><path class="au" d="M252.8,131.5h4.4c-.7,1.4-.2,3.2,0,5.3h-4.4A6.151,6.151,0,0,1,252.8,131.5Z"/><path class="k" d="M254.5,134.8l-1.3-.7,1.3-2.1Z"/><path class="k" d="M254.5,136l-1.2-1.8,1.2.7Z"/><path class="k" d="M254.5,134.8l1.3-.7-1.3-2.1Z"/><path class="k" d="M254.5,136l1.2-1.8-1.2.7Z"/><path class="ar" d="M254.7,135.8a1.43476,1.43476,0,0,0,1,1.6,1.55352,1.55352,0,0,0,2-.9l3.2-3.7-1.9-.9-2.2,2.6a.36729.36729,0,0,1-.3-.1,1.59368,1.59368,0,0,0-1.8,1.4Z"/><path class="h" d="M259,135.3l-1.7-1.9,4.2-5.6-.8-9h.2a1.91821,1.91821,0,0,1,2.5,1.1c.6,2.2,1.1,4.3,1.5,6.6,0,.1.1,3.2-.4,4.3-.7.8-5.3,4.3-5.5,4.5Z"/><path class="av" d="M113.1,188a1.2349,1.2349,0,1,0,1.7.4A1.18845,1.18845,0,0,0,113.1,188Z"/><path class="aw" d="M112.6,189.7a1.30384,1.30384,0,1,1,1.8.4A1.3027,1.3027,0,0,1,112.6,189.7Zm2.1-1.3a1.1662,1.1662,0,1,0-.4,1.6A1.06465,1.06465,0,0,0,114.7,188.4Z"/><path class="aw" d="M112.9,189.6a1.01242,1.01242,0,1,1,1.4.3A1.1005,1.1005,0,0,1,112.9,189.6Zm1.6-1a.95426.95426,0,0,0-1.2-.3.92649.92649,0,0,0-.3,1.2.87464.87464,0,0,0,1.5-.9Z"/><path class="aw" d="M113.4,189.3l-.2-.3v-.1h.1l.2.3c0,.1.1.1.2,0,.1,0,.1-.1,0-.2l-.1-.1a.2236.2236,0,1,1,.4-.2l.1.2v.1H114l-.1-.2c0-.1-.1-.1-.2,0-.1,0-.1.1,0,.2l.1.1a.19161.19161,0,0,1-.1.3C113.6,189.5,113.5,189.4,113.4,189.3Z"/><path class="aw" d="M114,188.9h0l.2-.2h.1v.1l-.3.1Zm-.8.5h0l.2-.2h.1v.1l-.3.1Zm-5.3-1.7-.9-1.4c-.1-.2-.1-.4.1-.5l1.4-.9c.2-.1.4-.1.5.1l.9,1.4c.1.2.1.4-.1.5l-1.4.9C108.2,187.9,108,187.9,107.9,187.7Zm1-2.6c-.1-.1-.2-.2-.3-.1l-1.4.9c-.1.1-.2.2-.1.3l.9,1.4c.1.1.2.2.3.1l1.4-.9c.1-.1.2-.2.1-.3Z"/><path class="aw" d="M108.4,185.7h0l.3-.3h.1v.1l-.4.2Zm.7,1h0l.3-.3h.1v.1l-.4.2Zm-.9-.2h0l.3-.3h.1v.1l-.4.2C108.3,186.6,108.3,186.5,108.2,186.5Zm.4.5h0l.3-.3h.1v.1l-.4.2Zm.2-.8c-.1-.1,0-.2.1-.3l.1-.1c.1-.1.2,0,.3.1s0,.2-.1.3l-.1.1C108.9,186.3,108.8,186.3,108.8,186.2Zm.3-.2h-.2v.1h.1l.1-.1Zm-1.2,0c-.1-.1,0-.2.1-.3l.1-.1c.1-.1.2,0,.3.1s0,.2-.1.3l-.1.1A.36734.36734,0,0,1,107.9,186Zm.3-.2H108v.1h.1l.1-.1Zm-.8.5c-.1-.1,0-.2.1-.3l.1-.1c.1-.1.2,0,.3.1s0,.2-.1.3l-.1.1C107.6,186.4,107.4,186.4,107.4,186.3Zm.3-.2h-.2v.1h.1l.1-.1Zm0,.7c-.1-.1,0-.2.1-.3l.1-.1c.1-.1.2,0,.3.1s0,.2-.1.3l-.1.1C107.9,187,107.8,186.9,107.7,186.8Zm.3-.2h-.2v.1h.1l.1-.1Zm0,.8c-.1-.1,0-.2.1-.3l.1-.1c.1-.1.2,0,.3.1s0,.2-.1.3l-.1.1C108.2,187.5,108.1,187.4,108,187.4Zm.4-.2h-.2v.1h.1l.1-.1Zm4.9-2.5-.6-1v-.1h0l1.6.4h.1v.1h0l-1.1.6Zm-.4-.9.5.8.8-.5Z"/><path class="h" d="M112.5,185.4l-.3-.4v-.2l.4-.3h.2l.3.4v.2l-.4.3C112.6,185.5,112.5,185.5,112.5,185.4Z"/><path class="aw" d="M112.5,185.5l-.3-.4c-.1-.1,0-.2.1-.3l.4-.3c.1-.1.2,0,.3.1l.3.4c.1.1,0,.2-.1.3l-.4.3C112.6,185.6,112.5,185.6,112.5,185.5Zm.3-.8h0l-.5.2v.1l.3.4h.1l.4-.3V185Zm1.4,2.8-1-1.6v-.1h.1l1,1.6c0,.1,0,.1-.1.1Z"/><path class="h" d="M111.5,186.1l-.3-.4v-.2l.4-.3h.2l.3.4v.2l-.4.3A.13852.13852,0,0,1,111.5,186.1Z"/><path class="aw" d="M111.4,186.1l-.3-.4c-.1-.1,0-.2.1-.3l.4-.3c.1-.1.2,0,.3.1l.3.4c.1.1,0,.2-.1.3l-.4.3A.36743.36743,0,0,1,111.4,186.1Zm.4-.8h0l-.5.2v.1l.3.4h.1l.4-.3v-.1Zm1.1,2.5-.7-1.2v-.1h.1l.7,1.2c0,.1,0,.1-.1.1Z"/><path class="h" d="M110.4,186.7l-.3-.4v-.2l.4-.3h.2l.3.4v.2l-.4.3C110.5,186.8,110.5,186.8,110.4,186.7Z"/><path class="aw" d="M110.4,186.8l-.3-.4c-.1-.1,0-.2.1-.3l.4-.3c.1-.1.2,0,.3.1l.3.4c.1.1,0,.2-.1.3l-.4.3C110.5,186.9,110.4,186.9,110.4,186.8Zm.3-.8h0l-.5.2v.1l.3.4h.1l.4-.3v-.1Zm1.4,2.8-1-1.6v-.1h.1l1,1.6c0,.1,0,.1-.1.1C112.2,188.9,112.1,188.9,112.1,188.8Zm-1.5,1.8-1.8-2.9v-.1h.1l1.8,2.9c.1.1.2.2.3.1l1.4-.9h.1v.1l-1.4.9C110.9,190.9,110.7,190.8,110.6,190.6Z"/><path class="aw" d="M109.5,185.7h0l3.2-2.1h0l1.6.4h0l1.9,3c.1.2.1.4-.1.5l-1.2.8h-.1v-.1l1.2-.8c.1-.1.2-.2.1-.3l-1.9-3-1.6-.4-3.1,2Z"/><path class="aw" d="M115.4,187.6c-.1-.1,0-.1,0,0l.4-.3v-.1l-.3-.4v-.1h.1l.3.4c.1.1,0,.2-.1.3l-.4.2Z"/></svg>